<?xml version="1.0" encoding="UTF-8"?><svg id="Layer_1" xmlns="http://www.w3.org/2000/svg" viewBox="0 0 224.11 292.59"><defs><style>.cls-1{fill:#095130;}</style></defs><path class="cls-1" d="M44.42,204l134.19-.1c7.79.15,7.77,11.42,0,11.62H45.81c-7.01-.03-8.1-9.9-1.39-11.52Z"/><path class="cls-1" d="M45.08,176.06c44.59.94,89.35-.52,133.89-.21,6.85.05,7.39,10.6.76,11.6H44.71c-6.22-.72-6.64-11.01.37-11.4Z"/><path class="cls-1" d="M168.53,6.9c18.36,16.84,35.4,35.44,53.2,52.84l1.83,4.16c1.12,69.97.14,140.12.49,210.16-.71,9.48-7.51,17.25-17.02,18.52H17.02C8.03,291.44.9,284.25,0,275.19V18.15C1.23,7.87,8.48.77,18.89,0h136.54c6.83.5,8.48,2.66,13.11,6.9ZM153.35,11.24H17.4c-2.7,0-7.07,5.5-6.56,8.4v252.18c.36,4.81,2.56,8.8,7.66,9.54h187.03c3.21.29,7.65-4.4,7.65-7.31V68.85h-41.7c-8.68,0-18.14-11.6-18.14-20.02V11.24ZM204.21,57.63l-40.02-40.03v30.86c0,3.06,5.36,9.17,8.41,9.17h31.6Z"/><path class="cls-1" d="M44.8,231.69l79.93-.09c7.14.26,7.5,10.83.38,11.59H45.08c-6.79-.73-6.9-10.62-.28-11.5Z"/><path class="cls-1" d="M36.71,117.19c0-23.87,12.54-41.8,39.82-41.8,18.92,0,32.56,9.02,33.11,30.47l-21.56,2.09c-.22-10.67-4.51-14.08-11.99-14.08-9.35,0-14.63,6.49-14.63,22.44s4.62,22.99,14.74,22.99c9.13,0,11.11-5.94,12.32-11.88l21.12,3.3c-2.09,20.24-19.69,27.06-34.43,27.06-27.61,0-38.5-15.18-38.5-40.59Z"/><path class="cls-1" d="M133.73,156.46l-24.64-79.64h27.06l13.86,56.65h.99l14.52-56.65h24.31l-24.09,79.64h-32.01Z"/></svg>