<?xml version="1.0" encoding="UTF-8"?><svg id="Layer_1" xmlns="http://www.w3.org/2000/svg" viewBox="0 0 509.48 506.68"><defs><style>.cls-1{fill:none;}.cls-2{fill:#f5f0df;}.cls-3{fill:#222327;}.cls-4{fill:#f3d455;}.cls-5{fill:#373b3f;}.cls-6{fill:#f2c998;}.cls-7{fill:#fdefc5;}</style></defs><path class="cls-7" d="M344.36,339.35c1.02-1.24,2.24-2.17,3.16-3.73,3.97-6.7,3.15-12.39,1.95-19.77.77-.18,1.2.18,1.82.47,3.83,1.83,8.67,11.1,11.3,14.72,2.24,3.09,9.73,11.57,10.66,14.4,1.7,5.19-1.22,10.09-2.85,14.85-.19.14-1.02-.67-1.02-.77v-9.2c0-2.23-1.62-7.47-2.78-9.48-3.8-6.56-8.34-1.39-8.48,4.35-.05,1.93.39,3.51.54,5.38l-5.77-3.67c-5.31-2.28-17.39-4.25-12.3,5.15,2.38,4.39,8.33,11.12,12.97,13.08,3.13,1.32,6.42,1.13,9.59,2.17.37.12,1.63-.01,1.13.89-.17.31-3.57,2.1-4.24,2.4-8.71,3.85-7.24-.18-14.25-2.29-7.47-2.25-14.36-.23-20.45,4.27-8.83,6.52,2.22,12.77,9.06,12.79,1.3,0,7.16-1.34,7.4-1.06,1.39,1.61-3.93,3.14-4.77,3.66-9.84,6.07-14.49,13.13-10.05,24.95-.49.46-9.4-3.7-9.68-4.36-.17-.4-.24-.95.31-1.26,1.8-.99,5.14-.81,6.47-3.18-.11-4.08,3.17-13.29,1.62-16.73-.56-1.24-3.64-2.64-4.98-2.47-5.8.75-4.95,12.58-4.48,16.74-2.35-.23-4.37,1.59-6.48,1.94-4.41.73-9.13-3.68-13.65-5.01-2.43-.72-6.38-1.9-8.29.18-2.71,2.95-.85,14.06-2.33,18.37-1.09,3.17-8.94,5.73-12.01,6.89-16.42,6.22-33.43,10.99-48.41,20.56-1.24.29-.54-.79-.24-1.14.89-1.02,2.68-2.3,3.82-3.46.24-.24,1.79-1.32.77-1.53,2.01-1.92,4.09-3.74,6.13-5.62l2.65-1.57,4.61-4.05,2.45-3.06c4.72-4.17,9.44-8.26,14.3-12.26l3.69-2.04c2.25-2.74,5.5-4.51,8.23-6.72.71-.57,1.37-.88,1.35-1.97.12-.08.4.08.51,0,2.18-1.5,2.84-1.99,4.6-3.58.18-.16.33-.35.51-.51.97-.04,1.35-.35,2.05-.92,5.92-4.83,12-9.65,18.11-14.43l2.32-2.53c5.64-4.46,11.15-9.05,16.86-13.29,1.62-1.21,3.18-2.4,4.75-3.68.25-.2,1.96-1.11.87-1.43,1.69-1.52,3.44-3.06,5.11-4.6.87,1.53,1.91-1.24,2.55-2.04.17-.17.34-.34.51-.51,3.6-2.82,6.94-6.34,9.86-9.84.81-.97,2.45-2.62,2.4-3.96.15-.18.36-.33.51-.51Z"/><path class="cls-7" d="M116.54,402.71c4.01-1.98,9.71-4.81,14.47-7.24,7.94-4.07,16.03-7.87,23.84-12.17-2.62,9.33-7.88,18.98-10.37,28.2-1.01,3.76-2.01,8.97,3.08,10,8.82,1.78,18.15-3.8,26.7-4.99-.55,3.03-1.96,5.63-.21,8.65.51.89,1.3,1.07,1.75,1.57.16.18.34.35.51.51,7.4,7.28,22.1,10.6,31.11,17.67,2.43,1.9,3.66,2.39,2.99,5.97-.81,4.32-4.5,11.28-5.86,16.11-.56,2.01-.73,4.2-1.18,6.24-3.17-1.68-12.9-3.27-15.08-5.61-.65-.7,1.18-1.9,1.7-2.92,3.6-6.96,4.89-16.23.61-23.16-.08-.15-.36-.33-.51-.51-1.1-1.37-1.35-1.08-3.01-.19-6.77,3.63-14.14,12.46-12.83,20.63-4.56-2.29-9.29-4.42-13.73-6.96-3.08-1.76-7.77-5.81-10.79-6.84-.02-2.05,3.77-4.33,5.37-6.12,1.15-1.3,6.29-7.72,6.25-8.88-.09-3.57-11.54-5.18-14.43-4.92-3.06.28-8.92,2.91-9.96,5.61-.06.15.05.36,0,.51h-.51c-1.94,1.56-2.42,1.72-4.59.5-.14-1.13.99-1.48,1.41-2.41,1.52-3.32,3.95-15.38.11-17.28-.99-.49-5.96,2.4-7.01,3.18-1.28.94-4.39,5.11-5.59,5.21-.79.07-1.45-1.46-1.7-.44-4.77-4.03-8.38-9.59-12.76-14.05,3.27-2.11,6.72-4.15,10.21-5.88Z"/><path class="cls-7" d="M389.31,410.38c-.53-2.32.87-3.43.39-6.27-1.24-7.25-8.65-8.78-14.12-10.92-.79-.31-2.45-.56-2.1-1.72h8.94c1.66,0,6.86-1.44,8.54-2.18,1.03-.46,4.02-2.03,4-3.19-5.35-6.51-12.55-13.45-21.48-13.27,2.86-5.73,6.18-11.31,7.65-17.63,17.24,7.75,33.18,17.93,49.51,27.37.92.7,2.05,1.54,1.32,2.76l-19.17,27.1c-.17.17-.33.34-.51.51-.17.15-1.75.55-2.03,1.79l.5.25c-1.28,1.4-2.19,2.3-3.58,3.58-2.66,2.46-4.61,4.6-7.15,7.15-.76.76-1.08,1.25-2.04,2.04-.08.06-.54-.1-.85.16-.79.67-3.97,3.79-4.58,3.88-1.41.21-1.28-1.54-.87-2.4.16-.33,4.98-3.45,5.88-4.23,4.96-4.33,12.42-15.1,12.66-21.74.09-2.7-1.69-1.67-2.03-1.72-3.5-.56-7.14-.54-10.22,1.53-.16.04-.35-.05-.51,0-1.48.43-2.03,1.22-3.06,2.04-.47.38-.71.74-1.02,1.02-.42.37-.66.66-1.02,1.02-.17.17-.35.33-.51.51-.78.84-1.74,1.44-2.55,2.55Z"/><path class="cls-7" d="M183.45,423.66c-3.41-4.17,2.58-10.04.64-14.19-1.33-2.84-6.86-2.56-9.32-1.65.06-5.74,5.79-15.34,2.44-20.58-1.9-2.97-6.12-.39-7.2,1.81-2.59,5.29-2.45,15.02-4.68,20.82-.44.57-12.04,3.49-12.52,3.06.44-1.68.75-3.44,1.28-5.1,2.17-6.69,5.55-15.31,8.32-21.82,4.46-10.48,10.33-21.3,18.48-29.28.58,5.71,1.03,11.33,2.21,16.96,4.34,20.76,17.49,37.74,27.35,55.93,1.28,2.36,4.53,7.96,5.18,10.15.21.71-.05.91-.75.75-4.75-2.93-9.63-5.81-14.54-8.45-3.42-1.83-6.96-3.59-10.41-5.42-.57-.3-2.9-1.75-3.4-.94-1.16-.72-1.98-1.07-3.06-2.04Z"/><path class="cls-5" d="M328.01,434.39c.17.02.34-.02.51,0-.28.91,2.17,2.15,3.06,2.04.18.17.34.35.51.51.11.1.05,1.52,2.04,1.53.16.17.36.33.51.51.31.39.45.88,1.02,1.02.04.17-.06.39,0,.51.36.69,1,.95,1.02,1.02.05.15-.05.36,0,.51.36,1.08,1.17,5.54,1.61,6.07.16.19.66.07.95.06.05.32-.06.71,0,1.02.32,1.73.13,4.32.98,6.42.61,1.49,1.4,1.48,2.08,2.26.37.42.78.74,1.02,1.02.16.18.37.33.51.51.37.48.69,1.02,1.02,1.53.23.36-.63,1.41,1.53,1.02h.51c-.62,1.6-.99,1.79-2.89,2.01-2.19.26-1.12-.77-2.73-.99-.1-.08-.4.08-.51,0-.14-.1-.24-.34-.51-.51-.12-.07-.37.07-.51,0-.09-.04-.22-.38-.51-.51-.14-.06-.36.06-.51,0-.1-.21-.29-.44-.51-.51-.6-.18-.91-.26-1.53-.51-3.31-1.32-4.07-1.13-7.43-.02-3.87,1.28-5.71,4.48-8.53,5.79-7.8,3.64-16.59,2.6-24.4.87-.31-.07-.71.06-1.02,0,.21-1.71-3.22-1.94-4.6-2.04-.55-.37-.65-.57-1.02-1.02-.86-2.22.85-2.99,1.01-3.43s-.07-.95.01-1.17c.05-.14-.05-.35,0-.51,1.01-.22,1.17-1.47,1.7-1.9.3-.24.78-.08.86-.15,1.52-.45,2.64-.88,3.06-2.55.13-.07.38.07.51,0,1.02-.56,2.41-.15,2.04-1.53.15-.05.36.05.51,0,6.53-2.2,8.83-2.08,15.32-2.55.26-.02.99-.04,1.02,0,.53.57-1.08.7,1.53,1.02.18.02.48-.05.51,0,.12.19-.13.91,0,1.02.17.15,1.14-.11,1.53,0,.16.05.36-.05.51,0,.1.03.32.37.51.51.57.43.6.52,1.02,1.02.5.6-.63.17,1.02,1.02.43.22,1.15.34,1.42.63.24.26.05.68.11.9s.3.41.51.51c.06.17-.08.44,0,.51,1.74,1.71,7.16-1.67,9.71-1.02.24-2.5-1.21-2.05-2.56-2.55-.15-.06-.36.06-.51,0l-.51-.51c-.14-.06-.37.06-.51,0l-.51-.51c-.14-.07-.37.07-.51,0l-.51-.51c-.13-.07-.39.08-.51,0l-1.02-1.02c-.29-.21-.78-.3-1.02-.51l-1.53-1.53c-.25-.3-.62-.5-1.02-1.02-.36-.47-.33-1.48-.83-1.98l-3.25-3.64c-.06-.14.06-.36,0-.51-.08-.21-.32-.39-.51-.51-.04-.15.03-.34,0-.51-.23-1.21-.07-3.47-1.53-3.07-.04-.33.02-.69,0-1.02,0-.04.34-.22.35-.65.01-1.33-.76-3.1.48-4.49,3.82-.86,6.5,1.61,9.9,2.07Z"/><path class="cls-5" d="M386.75,378.7c.16.17.31.39.51.51,1.72.99,5.15,4.33,6.13,6.13.56,2.34-1.77.78-2.04,3.07-.29.07-.71-.06-1.02,0-1.71.33-4.03.81-5.88,1.02-4.49.52-9.33-.1-13.53,1.54-.2.91.78.33,1.02.5.21.16.65.69,1.02,1.02.23.2.25,1.1.64,1.39.69.52,2.11.43,2.94.65.16.04.35-.05.51,0,1.21,1.75,4.11,2.17,6.13,2.55.33.18.71.3,1.02.51l.51.51c1.46,1.11,1.77.98,2.55,2.55l.51.51c.04.15-.04.35,0,.51,2.59,11.48-3.27,6.52-9.18,5.84-3.24-.37-1.75,2.24-2.11,4.58-.23,1.46-.64,3.44-.97,4.91-.04.16.04.35,0,.51-.95.28-1.1,1.12-1.02,2.04-.06.16.06.38,0,.51l-.51.51c-.07.14.06.37,0,.51-1,.92-2.41,1.34-3.73,1.01-.39-.09-.33-.86-.71-1-.42-.15-.99.08-1.17,0-.14-.07-.39.07-.51,0-.06-.04-.5-.67-1.02-1.02-.96-.65-1.59-1.51-2.55-2.04v-.51c-.02-.59-.94-.88-1.02-1.02-.07-.12.06-.35,0-.51-.11-.29-.49-.45-.51-.51-.05-.15.04-.34,0-.51-.58-2.52-.74-6.64-.51-9.2.03-.33-.04-.69,0-1.02,1.7.39,1.22-2.38,1.53-3.58.04-.16-.04-.35,0-.51,1.36.36,1-1.01,1.53-2.04.07-.14-.07-.38,0-.51.03-.06.66-.49,1.02-1.02.51-.73.2-2.07,2.04-2.04.07,0,.12.65.5.51-.01-.33.05-.69,0-1.02-.14-.98-1.47-3.05-2.04-4.09-.12-.22-.43-.36-.51-.51-.07-.12.07-.36,0-.51-.1-.22-.31-.39-.51-.51-.03-.15,0-.36,0-.51.21-4.74,4.02-10.03,6.13-14.31,5.2-1.52,10.78,1.43,14.81,4.6Z"/><path class="cls-5" d="M335.16,368.99c2.31-.2,6.62-.18,8.68,0,.34.03.69-.03,1.02,0-.39,1.7,2.38,1.22,3.58,1.53.16.04.35-.04.51,0-.24,1.37.32,1.04,1.53,1.02.24.12.38.44.51.51-.26,1.28.42,1.11,1.53,1.02.15.05.35-.05.51,0-.28,1.96,1.47.85,2.55.51.26-.08.7.06,1.02,0,0,.09.6.12.46.43-1.45.08-2.36,2.98-.47,2.64v.5c-2.7,1.24-3.98,2.06-5.61,4.61-.2.31-.35.69-.51,1.02l-.51.51c-.05.15.04.35,0,.51-1.61-.29-.87.8-1.03,1.75-.65,3.82-1.08,7.78-2.03,11.53-.04.16.04.35,0,.51-1.67-.33-1.2,1.6-1.53,2.55-.05.15.06.37,0,.51l-.51.51c-.06.15.06.37,0,.51-1.09-.12-1.14-.06-1.02,1.02-.08.12.08.4,0,.51l-1.02,1.02c-.9,1.11-1.04,1.02-1.53,1.53-1.09-.12-1.14-.06-1.02,1.02-.37.34-.4.61-1.53,1.53l-.51.51c-.89.7-1.91,1.08-2.55,1.53-1.05-.15-1.16-.03-1.02,1.02-.31.21-.7.31-1.02.51l-.51.51c-.32.2-.69.33-1.02.51h-4.09c-.05-.14.04-.34,0-.51-.82-3.86-1.38-8.51-1.02-12.26.03-.33-.04-.69,0-1.02l.51-.51c.04-.17-.05-.37,0-.51l.51-.51c.07-.14-.07-.38,0-.51,1.25-.39,1.84-.58,1.53-2.04,1.29-1.64,1.07-1.76,3.06-3.07l1.02-1.02c.16-.05.37.05.51,0,.89-.33,1.65.59,2.04-1.53.13-.07.37.07.51,0l.51-.51c.13-.07.37.07.51,0l.51-.51c.14-.06.37.07.51,0,1.21.02,1.77.34,1.53-1.02.14-.06.35.05.51,0,.26-.09.8.1,1.19-.08,1.16-.54,2.38-3.76,1.29-4.45-.46-.29-8.97.63-10.93.47-1.25-.1-4.15-.69-5.34-1.04-.16-.05-.36.05-.51,0l-.51-.51c-.31-.13-.77-.33-1.02-.51l-.51-.51c-.16-.17-.38-.33-.51-.51-.17-1.4-.61-2.63-.51-4.09.01-.18-.04-.37,0-.51l.51-.51c.83-1.28,1.3-1.39,2.55-2.04.56-.29,2.18.37,2.04-1.53.15-.05.37.06.51,0,.89-.37,1.67-.88,1.93-.98,1.15-.44,3.33.07,3.18-1.58.32-.05.69.03,1.02,0Z"/><path class="cls-5" d="M249.86,444.1c2.04-.41,7.74-1.07,9.36-.04,1.31.83.19,5.24-.17,6.68-.04.16.04.35,0,.51-1.37-.24-1.04.32-1.02,1.53-.06.15.06.37,0,.51l-.51.51c-.07.14.07.38,0,.51l-.51.51c-.07.13.07.39,0,.51-1.26.4-1.84.56-1.53,2.04-.35.5-.65,1.05-1.02,1.53l-.51.51c-1.07,1.35-1.85,2.32-3.06,3.58-.31.32-.7.71-1.02,1.02h-.51l-.51.51c-.92.83-.77.57-1.53,1.02-.62.37-.96.99-1.02,1.02-.33.18-.68.38-1.02.51-.31.12-1.15-.22-1.47.07-.24.22.01.87-.06.95-.17.18-.33.34-.51.51-.06.06-.57.04-1.02.51-.17.17-.36.33-.51.51s-.36.33-.51.51c-.19.23-.33.71-.51,1.02-.06.11-.39.22-.51.51-.06.14.05.35,0,.51-.01.03-.45.14-.51.51-.05.32.03.69,0,1.02-1.48-.3-1.07.83-1.04,1.79.04,1.66.31,2.97,1.29,4.34,2.71-1.82,3.51-5.49,5.37-8.17.79-.88,1.03-1.25,2.04-2.04.97-.57,2.41-.12,2.04-1.53.15-.05.35.04.51,0,6.21-1.46,10.31-.61,16.35.51.17.03.36-.04.51,0,.09.24.27.44.51.51.15.05.35-.03.51,0,.16.18.34.34.51.51.16.16.41.34.51.51l-1.02,3.58c-1.04,1.34-1.73,2.02-3.06,3.07l-.51.51c-.12.08-.38-.08-.51,0-.46.27-.85.44-1.02,1.02-.17.02-.35-.03-.51,0-1,.22-1.8-.61-1.53,1.02-.16.04-.35-.04-.51,0-.44.1-1.07-.07-1.66.11-1.05.32-4.39,1.48-3.96,2.44v.51c-2.5-.86-17.9-.47-18.84-1.59-.17-.2-.17-3.25.02-3.45.31-.35,2.24.08,2.5-1.89.21-1.57-1.02-2.43-1.34-3.76-.98-4.06.09-13.27,1.32-17.41.05-.16-.05-.36,0-.51l.51-.51c.14-.33.32-.73.51-1.02l.51-.51c.14-.19.36-.33.51-.51l.51-.51c1.12-1.26,1.73-1.96,3.06-3.07,1.58.5,1.43-.75,2.1-1.22s1.84,0,1.48-1.33c.13-.07.37.06.51,0,1.21.02,1.77.34,1.53-1.02.16-.04.35.03.51,0Z"/><path class="cls-5" d="M397.99,403.22c3.37-.94,7.24-1.14,10.72-1.02-.47,1.42-.31,3.34-.51,4.6-.05.32.06.71,0,1.02h-1.02s.51.51.51.51c-.07.31.08.75,0,1.02-1.84-.32-1.23,2.08-1.53,3.07-.05.16.05.36,0,.51l-.51.51c-.05.15.06.36,0,.51l-.51.51c-.07.14.07.39,0,.51-1.59.3-1.6,1.2-2.04,2.55-.71,1-1.35,2.11-2.04,3.07-1.04.38-1.42,1.36-2.04,2.04-.35.38-.67.67-1.02,1.02l-.51.51c-1.71,1.62-1.07,1.42-3.06,2.04-1.03.32-1.1-.09-1.53,1.53-.29.21-.73.3-1.02.51l-.51.51c-.27.21-.86.32-1.02.51-.87-.05-1.19-.18-1.02.77l.51.26c0,.12.45.33.51.51.27.79,1.27,2.3.8,3.06-4.26,3.14-8.27,6.62-12.54,9.71v-1.53c-3.13.25-6.17-.3-9.19-1.02-.16-.04-.35.04-.51,0-.03,0-.17-.41-.51-.51-.16-.05-.36.05-.51,0,.05-1.58-3.22-2.29-4.6-3.07-.16-.18-.34-.34-.51-.51s-.33-.35-.51-.51c-.06-.3.04-.69,0-1.02,1.66-.15,1.63-1.55,2.04-2.04.15-.19.36-.33.51-.51l1.02-1.02c.13-.07.38.07.51,0,6.71-3.4,13.18-4.31,20.19-1.03.49.02.16-.7.25-1.01.04-.13,0-.34,0-.51.09-2.38-1.48-3.68-1.55-5.89-.05-1.39,1.1-6.35,1.55-7.9.05-.16-.05-.36,0-.51l.51-.51c.06-.15-.06-.37,0-.51.9.24,1.32-1.07,1.81-1.78.96-1.39,2.09-2.81,2.78-4.35.16-.18.34-.34.51-.51,1.09.12,1.14.06,1.02-1.02.32-.28.55-.64,1.02-1.02.89.11,3.35-1.14,3.06-2.04.16-.05.35.04.51,0Z"/><path class="cls-5" d="M361.21,339.35c3.25-.09,2.8.42,4.09,2.27.2.29.94.19,1.02.28.06.07-.04.33,0,.51.23,1.17-.67,2.37,1.02,2.04.03.33-.02.68,0,1.02.13,1.92.38,4.31.51,6.39.14,2.23-.44,6.34-.02,8.11.15.63.94.23,1.04.32.17.15.35.34.51.51l.51,1.02c.03.15,0,.35,0,.51.02.99-2.37,5.82-3.05,6.4-1.04.88-1.04-.33-1.55-.78-.18-.16-.33-.38-.51-.51l-.51-.51c-.55-.28-.96-.36-1.53-.51.3-1.41-.7-.99-1.6-1.18-2.12-.45-3.53-.23-5.04-.35-.33-.03-.71.05-1.02,0,.24-1.37-.32-1.04-1.53-1.02-.15-.06-.37.06-.51,0,.32-1.47-1.46-1.4-2.55-1.53-1.04-.76-.95-.96-1.02-1.02l.51-.51h-1.02c-.1-.09-.42.08-.51,0l-1.53-1.53c-.92-1-.95-1.12-1.53-2.04l-1.02-1.02c-.07-.13.07-.38,0-.51-.78-1.36-.44-2.35-2.55-3.07-.06-.14.06-.36,0-.51-.32-.89-1.25-4.1-1.06-4.81,5.05-2.46,10.04,1.03,14.85,2.25,1.5.89,2.51,1.79,4.09,2.55.03.01.23.98.51.25-.23-4.42-.85-8.16.51-12.52.14-.18.34-.37.51-.51Z"/><path class="cls-5" d="M187.03,442.06c.52-.07,2.84-.1,3.02.05.29.24,1.44,6.5,1.51,7.42.43,5.02-.79,8.26-1.47,12.96-.02.17.02.34,0,.51-.17.16-.39.31-.51.51-.2.32-.31.7-.51,1.02-2.69.85-.6,2.84-4.34,2.58-.68-.05-8.6-3.51-8.95-3.84-.92-.87.19-5.22.36-6.77.04-.38-.35-.61-.34-.65.03-.33-.04-.69,0-1.02,1.6.4,1.16-1.91,1.53-3.07.05-.15-.05-.36,0-.51,1.83.07,1.54-1.67,2.04-2.55.19-.33.32-.7.51-1.02.49-.71,2.12-.82,2.45-1.15.29-.29.03-.77.11-.9,1.02-1.87.96-1.03,1.53-1.53,1.35-.44,2.26-.45,2.55-2.04.15-.04.34.03.51,0Z"/><path class="cls-5" d="M155.36,429.79c.34.03.69-.03,1.02,0l3.56,2.33c.04.19-.84,2.43-1.06,2.87-.4.8-1.91,2.61-2.5,3.49-.08.12.08.4,0,.51l-1.53,1.53c-1.38,1.85-1.6,1.78-3.06,3.07l-.51.51c-.66.53-1.25.8-1.53,1.02-1.06-.14-1.16-.03-1.02,1.02-.18.15-.33.36-.51.51-3.14-2.3-7.41-4.41-10.97-7.17-1.07-.83-2.15-2.95-2.31-3.05.1-.22.29-.43.51-.51.19-.07.65.17.91-.1.13-.13.45-1.46.62-1.95.05-.15-.06-.36,0-.51h.51l2.04-2.04c.13-.07.37.06.51,0,5.39-2.35,9.91-2.06,15.32-1.53Z"/><path class="cls-5" d="M356.62,443.08c.18,0,.38-.04.51,0l1.02,1.02c.06.13-.05.35,0,.51.43,1.33,1.06,4.02,1.06,5.37,0,.75-1.28,6.89-1.54,7.15-.52.51-9.37,5.27-9.73,4.86.01-3.74-.18-7.55.51-11.24.03-.16-.04-.35,0-.51,1.52.4,1.24-1.87,1.53-3.07.19-.32.31-.77.51-1.02l.51-.51c.37-.36.4-.61,1.02-1.02,1.35-.89,2.96-1.6,4.6-1.53Z"/><path class="cls-5" d="M131.86,416c.29,0,1.97.4,2.04.51-.02.34.03.69,0,1.02-.31,3.26-.18,7.39-.51,10.73-.03.33.03.69,0,1.02-1.69-.33-.79.88-1.02,2.04-.03.17.04.36,0,.51l-.51.51c-.05.17.07.4,0,.51l-.51.51c-.16.18-.33.35-.51.51-.49-.4-1.35-.66-2.05-1.26-1.17-1-7.53-7.29-7.57-8.1-.01-.25.29-.59.42-.85.09-.18.35-.34.51-.51.17-.17.36-.32.51-.51,1.19-1.49,1.33-1.55,2.55-2.55,2.02-.03,1.91-1.4,2.04-1.53.17-.17.33-.34.51-.51,1.48.31,1.65-.27,2.04-1.53.13-.07.36.06.51,0,.19-.08.38-.48.51-.51.28-.06.69,0,1.02,0Z"/><path class="cls-5" d="M175.79,398.62c-.05.32.05.7,0,1.02-1.16-.19-1.45.23-.51,1.02-.06.31.06.71,0,1.02-1.16-.19-1.45.23-.51,1.02-.07.31.07.73,0,1.02h-1.02s.51.51.51.51c-.08.29.08.73,0,1.02-1.65-.32-1.22,2.18-1.56,3.04-2.2.87-2.51-1.68-3.31-2.01-2.13-.89-.54,1.65-1.77,2.03-.18-1.14.49-2.18.49-3.29,0-.41-.5-.73-.49-.8.02-.34-.03-.69,0-1.02,1.55.3.9-.75,1.09-1.69.49-2.4.66-4.89.95-6.99.04-.33-.03-.69,0-1.02,1.64.45,1.21-2.75,1.53-4.09.04-.17-.05-.36,0-.51l.51-.51c.17-.15.29-.42.51-.51,7.28-2.85,3.66,6.71,3.21,10.07-.05.36.37.62.36.66Z"/><path class="cls-5" d="M317.79,388.4c.08-.11,2.14-1.57,2.28-1.58.86-.09,3.99.19,4.38.93.85,1.6-1.24,9.76-1.55,12.16-.16,1.26.1,2.57,0,3.82-.02.18.04.37,0,.51l-.51.51c-.08.09-.39-.08-.51,0-1.21-.02-1.77-.34-1.53,1.02-.3.07-.7-.06-1.02,0-1.14.21-2.42.26-3.57.51l1.5-.53c-.61-1.86.77-3.67.9-4.89.16-1.49-.87-4.05-.89-5.58s.4-4.01.53-5.85c.02-.31-.07-.91,0-1.02Z"/><path class="cls-2" d="M336.69,460.96c.62.25.93.33,1.53.51.12.2.29.42.51.51.15.06.38-.06.51,0l.51.51c.14.07.39-.07.51,0l.51.51c.11.08.41-.08.51,0,.21.19,1.61,1.93,1.53,2.04-27.8,11.99-57.99,17.93-88.37,17.38v-.51l5.62-2.55c.16-.04.35.04.51,0,.59-.13,1.16-.54,1.53-1.02.16-.03.34.02.51,0,.29-.04.69-.41,1.02-.51,1.09.86-2.64,1.93-3.43,2.43-.5.32-.91-.05-.66,1.14,21.78.24,44.08-3.35,64.76-10.07,2.07-.67,16.25-5.68,16.45-6.54-3.2-4.67-10.85-2.95-15.32-.76.2-.13.46-.87,1.03-1.24,2.97-1.95,6.77-1.89,10.21-1.82Z"/><path class="cls-5" d="M224.32,468.63c.05,0,.38.49.74.44,2.36-.31,7.31-2.46,8.34.95.16.51.27,2.48.08,2.68-.17.18-4.08.68-5,.89s-1.91-.27-1.61,1.17c-.17.03-.34-.02-.51,0-3,.4-7.12.88-5.53-3.75.48-1.4,2.75-.66,2.47-2.38.33-.04.69.04,1.02,0Z"/><path class="cls-2" d="M226.87,474.76c1.21-.19,6.09-1.77,6.66-1.32l1.51,7.45c-5.35-.59-10.69-1.54-15.93-2.71-1.51-.34-8.8-1.75-9.03-2.69-.2-.84,1.55-8.73,2-10.15.36-1.13.99-3.1,1.58-4.05,1.08-1.75,8.45-8.14,10.14-7.26,1.12.58,6.9,11.12,7.16,12.81.16,1.05-.1.67-.77.76-1.8.25-4.23-.16-5.88,1.03-.33.04-.69-.04-1.02,0-.55.07-3.08,1.11-3.33,1.52-.59.96.37,5.16.83,5.57.17.15,3.98.18,4.54.06-.22.06-.73.93-1.82,1.03-3.08.28-5.67-4.15-4.34-6.42,1.76-3.02,7.74-3.05,10.76-3.81-1.5-4.26-3.55-8.29-6.42-11.78-4.32,1.91-8.71,4.94-10.41,9.51-.6,1.6-2.25,8.77-2.1,10.18.07.62.25,1.03.9,1.19,6.76,1.16,14.56,3.96,21.36,4.16,1.25.04.55.05.52-.49-.09-1.67-.51-3.39-.28-5.1-.29-.29-7.12,1.27-8.17,1.53.22-.05.73-.81,1.02-1.02.17-.02.34.03.51,0Z"/><path class="cls-2" d="M344.36,339.35c6.02-8.05,5.62-16.06,4.09-25.55,1.29,1.11,3.05,1.53,4.36,2.56,3.94,3.1,9.65,13.34,12.79,17.85,2.17,3.12,7.79,8.93,8.66,12.28,1.28,4.93-1.86,11.68-4.36,15.86,0-.16.03-.36,0-.51-.13-.61-.06-.57-.51-1.02-.16-.17-.34-.36-.51-.51-1.56-4.67.79-10.34-1.53-14.82-.02-.34.03-.69,0-1.02-.08-.81-.29-1.57-1.02-2.04-.04-.18.06-.44,0-.51-.78-1.43-1.89-2.96-3.57-3.37-1.4-.35-1.06.43-1.54.82-.17.14-.37.34-.51.51-2.71,3.43-1.39,8.09-1.02,12.26-1.57-.77-2.58-1.67-4.09-2.55-3.4-2-10.52-5.44-14.28-3.29-1.77,1.01-1.41,4.9.49,5.85.06.15-.06.37,0,.51.44,1.03,1.54,2.49,2.55,3.07.07.13-.07.39,0,.51.39.65.94.89,1.02,1.02.59.92.61,1.05,1.53,2.04.59.64.88.94,1.53,1.53.09.08.41-.08.51,0,.18.15.32.36.51.51.07.06-.01.26,1.02,1.02,1.09.8,1.2.96,2.55,1.53.14.06.36-.06.51,0,.29.11.74.89,1.53,1.02.31.05.69-.03,1.02,0,1.87,1.28,4.62,1.01,6.64,1.53.58.15.98.24,1.53.51.12.06.31.36.51.51.18.13.33.35.51.51-1.15,2.67-6.02,3.6-8.68,4.61.01.33-.03.68,0,1.02-.32.06-.76-.08-1.02,0-.7-.86-1.92-.32-2.55-.51-.16-.05-.36.05-.51,0-.09-.03-.82-.64-1.53-1.02-.13-.07-.27-.39-.51-.51-.43-.22-.72-.8-1.53-1.02-.16-.04-.35.04-.51,0-.77-.89-2.46-1.44-3.58-1.53-.34-.03-.69.03-1.02,0-2.37-.86-6.28-.86-8.68,0-.33.03-.7-.05-1.02,0-1.64.25-3.93,1.38-5.11,2.55-.14.06-.36-.05-.51,0-.83.29-1.61.71-2.04,1.53-1.26.65-1.72.76-2.55,2.04-.11.16-.46.33-.51.51-.04.14.01.33,0,.51l-.42.34c-.5,1.78.04,2.45.93,3.74.13.18.35.34.51.51s.32.37.51.51c.25.18.71.38,1.02.51.03.01.12.38.51.51.15.05.35-.05.51,0,2.73,2.08,6.65,2.18,9.96,2.04s9.35-2.57,3.84,3.07c-.16.05-.37-.06-.51,0-.74.31-1.2.87-1.53,1.02-.14.07-.37-.06-.51,0-.37.17-.48.5-.51.51-.14.07-.38-.07-.51,0-.28.15-.43.47-.51.51-.14.07-.38-.07-.51,0-.78.4-1.67.6-2.04,1.53-.15.05-.35-.05-.51,0-.75.23-.84.9-1.02,1.02-2,1.31-1.78,1.43-3.06,3.07-.62.79-.92.92-1.53,2.04-.07.13.07.37,0,.51-.05.1-.41.23-.51.51-.05.14.04.35,0,.51,0,.03-.46.1-.51.51-.04.33.03.69,0,1.02-1.82,3.38-.8,9.07,1.02,12.26.04.17-.05.37,0,.51.43,1.28,2.1,1.26,3.24.92.63-.19.74-.87.85-.92.33-.18.7-.32,1.02-.51.22-.13.36-.41.51-.51.32-.2.71-.31,1.02-.51.6-.39.84-.89,1.02-1.02.65-.45,1.66-.84,2.55-1.53.19-.15.33-.36.51-.51,1.13-.92,1.17-1.19,1.53-1.53s.67-.65,1.02-1.02c.49-.52.63-.42,1.53-1.53.22-.28.62-.47,1.02-1.02.08-.11-.08-.39,0-.51.1-.16.69-.29,1.02-1.02.06-.14-.06-.36,0-.51.01-.03.36-.13.51-.51.06-.14-.05-.36,0-.51.87-.72,1.25-1.46,1.53-2.55.04-.16-.04-.35,0-.51,2.55-3.77,1.88-8.98,3.06-13.29.04-.16-.05-.36,0-.51.04-.12.4-.29.51-.51.16-.33.31-.71.51-1.02,3.67-3.25,8.24-5.35,12.77-7.15-1.97,3.87-3.89,7.81-5.99,11.61-4.09,7.4-9.11,14.84-13.52,22.26-1.28,2.15-4.03,9.2-6,9.85-2.74.9-4.16-.98-6.15-1.83.98.47,5.66,1.4,6.53.9,6.38-11.6,13.77-22.71,20.04-34.37.62-1.15,3.24-5.45,2.54-6.39-4.23,1.6-9.26,3.28-10.58,8.06-.99,3.6-.78,7.48-2.04,11.24-2.57,7.67-10.96,15.95-18.53,18.51.27.39,1.86,1.95,2.04,2.04-.39-.17-1.19-.07-1.88-.39-4.91-2.26-9.93-5.39-14.97-7.54-1.65-1.36,3.68-1.61,4.08-2.8.32-.06.72.07,1.02,0,1.44-.32,1.08-.71,1.53-1.02.12-.08.43.09.51,0,.07-.08.35.05.51-.51.04-.14-.02-.33,0-.51.66-.58.88-1.51.98-2.34.5-4.38,1.11-8.74,1.48-13.13-2.01-3.1-5.81-3.37-7.57.14-.07.11.02.71,0,1.02-2.45,2.52.13,9.93-.76,11.75-.73,1.5-8.55,3.81-10.49,3.34-1.64-.4-2.73-1.94-3.46-2.28-3.07-1.43-11.28-5.01-14.19-3.14-3.66,2.35.22,16.08-4.09,20.44-1.27,1.28-5.86,3.21-7.75,4-10.36,4.37-21.8,7.15-32.26,11.67-8.39,3.63-16.53,8.22-24.33,12.97l-.76-.25c3.33-3.06,6.44-6.34,9.7-9.46,1.02.22-.53,1.29-.77,1.53-1.15,1.16-2.93,2.43-3.82,3.46-.3.35-1,1.43.24,1.14,14.98-9.57,31.98-14.34,48.41-20.56,3.07-1.16,10.92-3.72,12.01-6.89,1.48-4.3-.38-15.42,2.33-18.37,1.91-2.08,5.86-.9,8.29-.18,4.52,1.33,9.24,5.75,13.65,5.01,2.11-.35,4.13-2.18,6.48-1.94-.47-4.17-1.31-15.99,4.48-16.74,1.35-.17,4.43,1.23,4.98,2.47,1.55,3.45-1.73,12.66-1.62,16.73-1.33,2.37-4.67,2.19-6.47,3.18-.55.3-.48.85-.31,1.26.28.66,9.19,4.82,9.68,4.36-4.45-11.82.21-18.88,10.05-24.95.84-.52,6.16-2.05,4.77-3.66-.24-.28-6.1,1.06-7.4,1.06-6.84-.01-17.89-6.27-9.06-12.79,6.09-4.5,12.98-6.52,20.45-4.27,7,2.11,5.53,6.14,14.25,2.29.68-.3,4.07-2.09,4.24-2.4.5-.91-.76-.77-1.13-.89-3.17-1.04-6.46-.85-9.59-2.17-4.64-1.96-10.6-8.7-12.97-13.08-5.09-9.4,6.99-7.43,12.3-5.15l5.77,3.67c-.14-1.86-.58-3.45-.54-5.38.14-5.74,4.69-10.91,8.48-4.35,1.17,2.01,2.78,7.25,2.78,9.48v9.2c0,.09.82.91,1.02.77,1.62-4.76,4.54-9.66,2.85-14.85-.93-2.83-8.42-11.32-10.66-14.4-2.63-3.63-7.47-12.9-11.3-14.72-.62-.3-1.05-.66-1.82-.47,1.2,7.38,2.02,13.07-1.95,19.77-.92,1.56-2.15,2.5-3.16,3.73Z"/><path class="cls-2" d="M186.52,425.71c.5-.81,2.84.64,3.4.94,3.45,1.84,6.99,3.59,10.41,5.42,4.92,2.64,9.79,5.52,14.54,8.45.7.16.96-.03.75-.75-.65-2.19-3.9-7.79-5.18-10.15-9.86-18.19-23.01-35.17-27.35-55.93-1.18-5.63-1.63-11.25-2.21-16.96-8.15,7.98-14.02,18.8-18.48,29.28-2.77,6.51-6.15,15.13-8.32,21.82-.54,1.65-.85,3.42-1.28,5.1.48.43,12.08-2.49,12.52-3.06,2.23-5.8,2.09-15.53,4.68-20.82,1.08-2.2,5.31-4.78,7.2-1.81,3.35,5.24-2.38,14.84-2.44,20.58,2.46-.91,8-1.19,9.32,1.65,1.94,4.15-4.05,10.02-.64,14.19-1.03-.93-1.98-1-2.09-2.81-.18-2.88,3.29-8.33,2.23-10.84-1.83-4.34-9.95-.79-10.35-1.17.21-1.23.69-2.37,1.02-3.57.08-.29-.08-.73,0-1.02,0-.03.4-.06.51-.51.07-.3-.07-.72,0-1.02.01-.06.35-.22.51-1.02.06-.31-.06-.71,0-1.02.01-.06.37-.18.51-1.02.05-.32-.05-.7,0-1.02,1.29-2.4,2.79-9.75.29-11.27-1.12-.68-3.17-1.05-3.86.54-.22.09-.34.36-.51.51s-.44.28-.51.51c-.05.15.04.34,0,.51-.93.79-1.42,2.87-1.53,4.09-.03.33.04.7,0,1.02-.87,2.47-1.8,6.13-2.04,8.69-.03.34.02.68,0,1.02l-1.62,6.55c-4.3.58-9.17,2.9-13.45,3.16-1.22.07-.87-.75-.64-1.67,3.36-13.63,13.99-37.81,22.38-49.03,2.35-3.13,5.25-5.94,7.63-9.09-.1,6.01.58,12.07,1.7,17.98,4.32,22.87,19.44,41.84,30.06,61.9.63,1.19,3.49,6.47,3.48,7.27,0,.51-.48,1.24-.76,1.24s-3.62-2.78-4.41-3.24c-8.23-4.85-17.42-8.64-25.47-13.61Z"/><path class="cls-4" d="M202.35,401.18l19.68,34.22,19.14-16.85c-5,4.44-11.32,9.81-15.85,14.54-.73.77-2.67,4.5-3.55,3.85-6.03-12.17-13.47-23.6-19.42-35.77Z"/><path class="cls-2" d="M365.81,388.4c0,.16-.03.37,0,.51.05.24.28.43.51.51.07.15-.07.39,0,.51l.51.51c.57,1.04,1.9,3.11,2.04,4.09l-.51.51c-1.85-.03-1.53,1.31-2.04,2.04l-1.02,1.02c-.07.13.07.38,0,.51-.78.36-1.32,1.26-1.53,2.04-.04.16.04.35,0,.51-.93.81-1.38,2.41-1.53,3.58-.04.33.03.69,0,1.02-.76,2.51-1.2,7.12.51,9.2.04.17-.05.36,0,.51l.51.51c.06.16-.07.39,0,.51l1.02,1.02v.51s-.28.56-.42.46c-.3-.23-2.76-4.45-2.91-5.04-1.72-6.78,2.3-14.47,6.84-19.25-.54-1.27-2.31-6-3.72-4.23-2.22,2.8-4.52,8.12-6.52,11.36-4.08,6.61-8.52,15.6-12.75,21.49-1.83,2.55-4.66,4-7.84,3.94-5.42-.11-22.98-10.41-29.19-13.25-4.42-2.02-8.98-3.81-13.46-5.7-.47,4.21-.11,9.94-1.79,13.8-1.52,3.48-9.23,7.27-12.76,8.7-8.28,3.37-17.29,5.33-25.65,8.58-8.25,3.21-16.43,7.57-24.47,11.31v1.57s5.4,11.23,5.4,11.23c.12-8.31,4.81-14.6,11.82-18.58,3.5-1.98,12.58-4.64,14.46.21,1.21,3.11-3.41,11.27-5.41,13.95-.91,1.22-3.59,3.67-5.03,4.42,1.21-1.26,1.99-2.23,3.06-3.58.15-.18.37-.32.51-.51.37-.48.67-1.03,1.02-1.53.49-.69,1.05-1.24,1.53-2.04.07-.12-.07-.38,0-.51.06-.1.36-.23.51-.51.07-.13-.07-.37,0-.51.02-.04.36-.13.51-.51.06-.14-.06-.36,0-.51.09-.25.8-.74,1.02-1.53.04-.16-.04-.35,0-.51,5.38-8.03-3.24-10.06-9.19-6.64-.16.03-.35-.04-.51,0-1.38.35-1.38.95-1.53,1.02s-.38-.07-.51,0c-1.65.85-2.23,1.44-3.58,2.55s-1.94,1.81-3.06,3.07c-.16.18-.36.33-.51.51s-.37.32-.51.51-.38.32-.51.51c-.19.29-.37.7-.51,1.02-.01.03-.38.12-.51.51-.05.15.05.35,0,.51-2.64,3.49-1.69,8.22-2.3,12.26-1.88-3.7-3.88-7.58-5.45-11.41-.45-1.11-2.14-4.4-1.46-5.17,1.52-1.72,15.49-7.77,18.56-9.06,10.88-4.6,22.59-7.35,33.18-11.77,2.11-.88,9.09-4.48,10.29-6.05.69-.9,2.34-6.81,2.34-7.88v-8.43c5.68,2.06,11.66,4.47,17.2,7.06s22.67,12.97,27.87,12.26c5.98-.83,8.3-8.5,11.03-13.02,4.93-8.16,9.75-16.45,14.79-24.54.7-1.13.61-.68,1.64-.15Z"/><path class="cls-2" d="M176.3,427.24c3.8,3.12,8.62,4.52,12.95,6.71,4.04,2.05,20.91,10.58,22.07,14.21.27.84.27,1.33.12,2.19-.55,3.16-3.98,9.93-5.14,13.79-1,3.31-1.79,6.7-2.42,10.1l-17.36-6.14c.88-1.18,1.77-2.32,2.55-3.57.2-.32.32-.7.51-1.02.23-.07.48-.28.51-.51.02-.17-.02-.34,0-.51,2.94-4.53,2.85-16.3.51-20.95,4.27,6.93,2.99,16.2-.61,23.16-.52,1.01-2.35,2.22-1.7,2.92,2.18,2.34,11.91,3.93,15.08,5.61.45-2.04.61-4.23,1.18-6.24,1.36-4.83,5.05-11.79,5.86-16.11.67-3.57-.57-4.06-2.99-5.97-9.01-7.07-23.71-10.39-31.11-17.67Z"/><path class="cls-2" d="M362.23,435.41c.04.33-.06.72,0,1.02.05.24.27.44.51.51.17.17.35.34.51.51,1.37,1.47,2.79,2.42,4.6,3.07.15.05.35-.05.51,0l.51.51c.16.04.35-.04.51,0,2.53,1.95,6.15,2.15,9.19,2.04v.51c-3.15,2.28-6.65,4.74-9.83,6.8s-6.59,3.94-9.84,5.97c.44-3.82,2.04-8.35-.76-11.75-.05-.16.06-.38,0-.51-.22-.51-.46-.86-1.02-1.02-.13-.04-.33,0-.51,0-1.55-1.42-3.84-.18-4.6,1.53-.62.41-.66.66-1.02,1.02-.17.17-.36.33-.51.51-.2.25-.32.71-.51,1.02-.72,1.2-1.18,1.44-1.53,3.07-.04.16.03.35,0,.51-.89,1.19-1.34,3.47-1.47,4.91-.19,2.2.53,4.8-.06,6.33h-.51c-.22-.73-.79-1.01-1.53-1.02-.33-.51-.65-1.05-1.02-1.53l2.55,1.02c-2.22-4.33,3.52-18.78,8.33-18.76,6.41.02,6.36,8.71,5.47,13.14l15.83-10.48c-2.69-.41-15.35-5.42-14.75-8.63.11-.56.76-.61.96-.82v.51Z"/><path class="cls-2" d="M371.94,374.1c3.31-6.72,5.94-12.2,8.64-19.22.2-.52-.28-.91.76-.66l51.69,29.07c.62,1.6-1.32,2.7-1.78,3.5-4.71,8.32-11.61,19.03-18.44,25.63l19.17-27.1c.73-1.22-.41-2.06-1.32-2.76-16.33-9.44-32.27-19.62-49.51-27.37-1.48,6.32-4.79,11.9-7.65,17.63,8.93-.18,16.13,6.76,21.48,13.27.01,1.16-2.97,2.74-4,3.19-1.69.75-6.89,2.18-8.54,2.18h-8.94c-.35,1.16,1.32,1.41,2.1,1.72,5.46,2.14,12.88,3.67,14.12,10.92.48,2.84-.91,3.95-.39,6.27-.6.82-1.66,2.64-2.04,3.58-.06.14.06.36,0,.51-.01.03-.39.12-.51.51-.05.15.05.35,0,.51-2.92,4.52-3.12,9.36,0,13.8,0,.18.04.38,0,.51-6.6-2.03-14.89-3.05-20.43,2.04-.14.07-.38-.07-.51,0-.67.35-.65.59-1.02,1.02-.15.18-.36.33-.51.51-.5.35-1.05.65-1.53,1.02.43-1.32,2.81-3.31,3.92-4,5.56-3.51,12.51-4.25,18.55-1.62-3.19-6.85-.34-12.41,3.07-18.39-3.42,1.13-6.92-.6-10.21-1.54.16,3.95-1.39,9.75-3.66,13.01-.71,1.02-.88.25-.94.28.16-.34.35-.68.51-1.02.06-.14-.07-.37,0-.51.02-.03.33-.13.51-.51.06-.13-.06-.35,0-.51.16-.45.71-.82,1.02-2.04.04-.16-.04-.35,0-.51,1.74-2.54,2.12-6.22,2.05-9.2,2.24.64,8.76,3.28,10.48,1.55,1.21-1.22,1.41-6.4-.27-7.68-.04-.17.04-.36,0-.51-.05-.17-.42-.34-.51-.51-.78-1.58-1.1-1.44-2.55-2.55-.18-.14-.32-.38-.51-.51-.31-.21-.7-.33-1.02-.51-2.36-1.33-3.49-1.79-6.13-2.55-.16-.05-.35.04-.51,0l-3.58-2.04c-.37-.33-.82-.87-1.02-1.02,5.75-2.33,12.68.34,18.39-3.07.32-.06.73.07,1.02,0,1.73-.44,2.92-1.46,2.04-3.07-.98-1.8-4.41-5.14-6.13-6.13-.16-.18-.32-.36-.51-.51-4.04-3.17-9.61-6.11-14.81-4.6Z"/><path class="cls-2" d="M136.97,433.37c1.05-2.71,6.9-5.33,9.96-5.61,2.9-.26,14.34,1.34,14.43,4.92.03,1.16-5.1,7.58-6.25,8.88-1.6,1.79-5.39,4.07-5.37,6.12,3.02,1.03,7.71,5.08,10.79,6.84,4.43,2.53,9.17,4.66,13.73,6.96-1.31-8.17,6.06-17,12.83-20.63,1.66-.89,1.9-1.18,3.01.19-1.11-.06-2.4,0-3.06,1.02-.17.03-.36-.04-.51,0-.99.25-1.83,1.41-2.55,2.04-.57.5-.51-.34-1.53,1.53-1.24.07-1.97,1.07-2.55,2.04-.2.32-.33.69-.51,1.02-1.01.47-1.7,1.52-2.04,2.55-.05.15.05.36,0,.51-.86.75-1.39,1.95-1.53,3.07-.04.33.03.69,0,1.02-1.17,1.66-.79,4.07-1.03,5.88-.09.7.29.89-.75.75-6.46-3.17-12.65-6.79-18.57-10.67-1.37-.9-5.69-2.5-5.71-4.14-2.35-.8-1.03-.65-1.53-1.02.19-.15.33-.36.51-.51.43-.36.79-.84,1.02-1.02.28-.22.87-.49,1.53-1.02.19-.15.33-.35.51-.51,1.46-1.28,1.68-1.22,3.06-3.07.27-.36.95-.71,1.53-1.53.08-.11-.08-.39,0-.51,3.45-2.52,6.53-8.04,0-8.69-.33-.03-.69.03-1.02,0-4.48-1.55-11.73-2.06-15.32,1.53-.15.06-.38-.07-.51,0-.89.44-1.57,1.19-2.04,2.04h-.51Z"/><path class="cls-2" d="M116.54,402.71l39.84-20.95-10.69,28.39c-.99,4.94-3.44,10.15,3.33,10.91,4,.45,10.13-1.1,14.12-2.15,2.17-.57,10.56-4.03,11.9-3.93.33.03.61.55.56,1.04-.17,1.69-2.07,3.86-1.83,6.3.16,1.63,1.76,2.81,2.03,4.39-.44-.5-1.23-.68-1.75-1.57-1.74-3.01-.34-5.61.21-8.65-8.55,1.19-17.88,6.77-26.7,4.99-5.09-1.03-4.09-6.24-3.08-10,2.48-9.23,7.75-18.88,10.37-28.2-7.81,4.31-15.9,8.11-23.84,12.17-4.76,2.44-10.46,5.26-14.47,7.24Z"/><path class="cls-2" d="M119.09,422.64c.25-1.03.91.51,1.7.44,1.2-.1,4.31-4.28,5.59-5.21,1.05-.77,6.02-3.67,7.01-3.18,3.84,1.91,1.41,13.96-.11,17.28-.42.92-1.56,1.27-1.41,2.41,2.18,1.22,2.66,1.06,4.59-.5l-1.02,2.04c-.23.08-.41.29-.51.51-1.49-.98-2.07-.89-4.09-2.55.18-.16.35-.33.51-.51s.39-.3.51-.51c.07-.11-.05-.34,0-.51.01-.03.41-.14.51-.51.04-.15-.03-.34,0-.51.43-.46.96-1.46,1.02-2.04.03-.33-.03-.69,0-1.02,1.31-3.09,1.51-7.5.51-10.73.03-.34-.02-.69,0-1.02-.25-.85-.9-1.16-1.76-1.01l-.28.5c-.33,0-.74-.06-1.02,0l-.51.51c-.15.06-.38-.07-.51,0-.77.39-1.41.94-2.04,1.53-.18.17-.34.34-.51.51-1.06.15-1.45,1.04-2.04,1.53-1.22,1-1.36,1.07-2.55,2.55-.17.17-.35.34-.51.51s-.42.33-.51.51c-1.53,1.17-1.41-.06-2.55-1.02Z"/><path class="cls-2" d="M408.21,401.69c.33.05,2.12-.98,2.03,1.72-.23,6.64-7.7,17.41-12.66,21.74-.9.79-5.73,3.91-5.88,4.23-.41.86-.54,2.6.87,2.4.61-.09,3.78-3.21,4.58-3.88.31-.26.78-.09.85-.16-.72,1.16-5.8,5.85-6.63,5.11-.1-.09.1-1.92-1.03-2.04-.06-.18-.5-.39-.51-.51,0-.07.4-.89.51-1.02.16-.19.75-.3,1.02-.51.2-.16.35-.39.51-.51.29-.21.73-.3,1.02-.51.62-.45,1.24-.72,1.53-1.53,2-.62,1.36-.43,3.06-2.04.18-.17.34-.34.51-.51.35-.35.67-.64,1.02-1.02.96-.44,1.46-1.23,2.04-2.04.69-.96,1.34-2.07,2.04-3.07.58-.81,1.39-1.45,2.04-2.55.07-.12-.07-.37,0-.51.05-.1.4-.22.51-.51.06-.15-.05-.36,0-.51.01-.03.38-.12.51-.51.05-.15-.05-.36,0-.51.83-.71,1.21-2.05,1.53-3.07.08-.27-.07-.71,0-1.02,0-.04.43-.09.51-.51.06-.31-.05-.7,0-1.02,1.13-1.32,1.77-4.36,0-5.11Z"/><path class="cls-2" d="M300.94,379.21l-2.32,2.53c-6.11,4.78-12.19,9.6-18.11,14.43-.7.57-1.07.88-2.05.92,7.01-6.24,15.07-12.03,22.48-17.88Z"/><path class="cls-2" d="M245.26,424.17l-2.45,3.06-4.61,4.05-2.65,1.57c3.2-2.96,6.44-5.8,9.71-8.69Z"/><path class="cls-2" d="M407.19,418.55c-1.67,2.99-4.65,4.95-7.15,7.15,2.54-2.55,4.49-4.69,7.15-7.15Z"/><path class="cls-2" d="M272.84,401.18c.02,1.09-.64,1.4-1.35,1.97-2.73,2.21-5.99,3.98-8.23,6.72l-3.69,2.04c4.18-3.45,8.86-7.71,13.28-10.73Z"/><path class="cls-2" d="M277.95,397.6c-1.76,1.59-2.42,2.08-4.6,3.58,1.12-1.38,2.96-3.02,4.6-3.58Z"/><path class="cls-2" d="M343.85,339.86c.06,1.34-1.59,2.99-2.4,3.96-2.93,3.5-6.26,7.02-9.86,9.84,4.38-4.26,8.42-9.18,12.26-13.8Z"/><path class="cls-2" d="M412.29,412.93c.12,1.29-1.02,1.49-1.53,2.04l-.5-.25c.29-1.24,1.87-1.64,2.03-1.79Z"/><path class="cls-2" d="M328.52,356.21c.89-.83,1.88-1.4,2.55-2.04-.64.8-1.69,3.57-2.55,2.04Z"/><path class="cls-2" d="M317.79,365.92c1.58-2.02,3.74-3.43,5.62-5.11,1.09.33-.62,1.23-.87,1.43-1.57,1.28-3.13,2.47-4.75,3.68Z"/><path class="cls-5" d="M235.55,476.29h-.5c-.25-2.13.75-2.13.5,0Z"/><path class="cls-3" d="M190.09,441.03c.15.18.44.36.51.51,2.34,4.65,2.43,16.42-.51,20.95.68-4.7,1.89-7.94,1.47-12.96-.08-.93-1.22-7.18-1.51-7.42-.18-.15-2.5-.13-3.02-.05.67-1.02,1.95-1.08,3.06-1.02Z"/><path class="cls-3" d="M136.97,433.88c-.17.48-.49,1.81-.62,1.95-.26.27-.72.03-.91.1l1.02-2.04h.51Z"/><path class="cls-3" d="M408.21,401.69c1.77.75,1.13,3.79,0,5.11.2-1.26.04-3.18.51-4.6-3.49-.12-7.36.08-10.72,1.02,3.08-2.07,6.72-2.09,10.22-1.53Z"/><path class="cls-3" d="M391.86,407.82c-.69,1.54-1.82,2.96-2.78,4.35-.49.71-.91,2.03-1.81,1.78.38-.93,1.44-2.76,2.04-3.58.81-1.11,1.78-1.71,2.55-2.55Z"/><path class="cls-3" d="M397.48,403.22c.28.91-2.17,2.15-3.06,2.04,1.03-.83,1.58-1.62,3.06-2.04Z"/><path class="cls-3" d="M393.39,406.29c.12,1.09.06,1.14-1.02,1.02.36-.36.6-.65,1.02-1.02Z"/><path class="cls-7" d="M250.88,463.01c1.44-.75,4.12-3.21,5.03-4.42,2-2.68,6.62-10.84,5.41-13.95-1.89-4.85-10.96-2.19-14.46-.21-7.02,3.98-11.71,10.27-11.82,18.58l-5.39-11.23v-1.57c8.03-3.74,16.21-8.1,24.46-11.31,8.36-3.25,17.37-5.21,25.65-8.58,3.52-1.44,11.24-5.22,12.76-8.7,1.68-3.86,1.32-9.59,1.79-13.8,4.48,1.89,9.03,3.67,13.46,5.7,6.21,2.84,23.78,13.14,29.19,13.25,3.18.06,6.02-1.39,7.84-3.94,4.23-5.89,8.67-14.88,12.75-21.49,2-3.24,4.3-8.56,6.52-11.36,1.41-1.77,3.17,2.95,3.72,4.23-4.54,4.78-8.56,12.47-6.84,19.25.15.59,2.61,4.82,2.91,5.04.14.1.39-.47.42-.46.96.54,1.59,1.4,2.55,2.04l1.02,1.02c.13.07.37-.07.51,0,1.78,2.1,2.92,2.16,5.11,1.02.06-.03.23.74.94-.28,2.27-3.26,3.82-9.06,3.66-13.01,3.29.93,6.79,2.67,10.21,1.54-3.41,5.98-6.26,11.54-3.07,18.39-6.04-2.63-12.99-1.89-18.55,1.62-1.1.7-3.48,2.68-3.92,4-.18.13-.36.34-.51.51-.19.21-.85.26-.96.82-.61,3.21,12.06,8.22,14.75,8.63l-15.83,10.48c.89-4.44.94-13.12-5.47-13.14-4.81-.02-10.55,14.43-8.33,18.76l-2.55-1.02c-.14-.18-.36-.33-.51-.51-2.63-4.16-3.58-16.73-7.66-19.42-.31-.21-.7-.32-1.02-.51-.15-.19-.35-.34-.51-.51-.59-.62-.76-1.61-2.04-1.53-.17-.16-.33-.34-.51-.51-.71-.66-2.3-1.49-2.55-2.04-.1-.22,1.19-.09-1.43-1.37s-7.25-2.95-9.95-2.21c-1,.27-1.84,3.66-1.78,4.7.18,3.22,3.48,10.22,5.65,12.54.32.34.96.42,1.38.65h.51c.4.52.77.72,1.02,1.02.62.74.81.91,1.53,1.53.25.21.73.3,1.02.51.21.15.37.61,1.02,1.02.12.08.38-.07.51,0,.1.06.23.37.51.51.14.07.37-.07.51,0,.09.04.22.38.51.51.14.06.37-.06.51,0,.03.01.12.36.51.51.15.06.36-.06.51,0l2.04,1.53c-2.12.19-4.1,1-6.13,1.54-.57-1-2.19-.19-2.96-.62-.18-.1-1.78-2.47-2.65-3.22-5.83-4.99-13.01-5.6-20.07-2.69-2.68,1.1-10.31,5.95-11.1,8.57-.05.16.05.37,0,.51h-.51c-6.05,5.03,1.95,7.55,6.25,8.82,9.99,2.96,20.55,3.72,28.48-4.22.17-.11.31-.37.51-.51,4.48-2.19,12.12-3.91,15.32.76-.2.87-14.39,5.87-16.45,6.54-20.68,6.72-42.99,10.31-64.76,10.07-.26-1.2.15-.82.66-1.14.79-.5,4.51-1.57,3.43-2.43v-.51c.13-.08.39.08.51,0,.2-.13.33-.37.51-.51,1.33-1.04,2.03-1.72,3.06-3.07s2.22-1.42,1.02-3.58c-.1-.17-.35-.35-.51-.51v-.51c.97-.26.08-.74-.66-1.13-6.21-3.23-17.05-3.12-22.35,1.87-2.09,1.96-2.69,5.63-5.08,7.43-.8-6.97,5.41-9.19,9.7-13.29.32-.31.71-.7,1.02-1.02Z"/><path class="cls-2" d="M289.7,464.54c.38.45.47.65,1.02,1.02,1.34.9,3.04,1.72,4.6,2.04.31.06.72-.07,1.02,0,6.7,2.89,14.71,3.44,21.59.9,2.19-.81,5.05-2.64,7.02-3.97-7.93,7.94-18.5,7.19-28.48,4.22-4.3-1.28-12.3-3.79-6.25-8.82-.98,2.39-2.32,2.44-.51,4.6Z"/><path class="cls-3" d="M336.69,460.96c-3.43-.07-7.24-.12-10.21,1.82-.57.37-.84,1.11-1.03,1.24s-.34.4-.51.51c-1.97,1.32-4.83,3.15-7.02,3.97-6.88,2.54-14.88,1.99-21.59-.9,7.8,1.73,16.59,2.77,24.4-.87,2.82-1.32,4.66-4.52,8.53-5.79,3.36-1.11,4.12-1.3,7.43.02Z"/><path class="cls-2" d="M290.72,459.43c.79-2.62,8.42-7.47,11.1-8.57,7.06-2.91,14.23-2.3,20.07,2.69.87.74,2.47,3.12,2.65,3.22.78.43,2.39-.38,2.96.62-1.01.27-2,.59-3.06.51-.08-.07.06-.34,0-.51-.08-.22-.3-.4-.51-.51-.07-.22.12-.64-.11-.9-.27-.29-.99-.41-1.42-.63l-1.02-1.02c-.42-.5-.45-.59-1.02-1.02l-.51-.51c-.15-.05-.35.05-.51,0l-1.53-1.02s-.34.02-.51,0l-1.53-1.02s-.76-.02-1.02,0c-4.63-2.02-11.35-.35-15.32,2.55-.15.05-.36-.05-.51,0-.8.26-1.67.71-2.04,1.53-.13.07-.38-.07-.51,0-.61.35-2.3,1.95-3.06,2.55-.08.06-.56-.09-.86.15-.53.43-.69,1.68-1.7,1.9Z"/><path class="cls-3" d="M314.73,450.74c-6.49.47-8.8.35-15.32,2.55,3.98-2.9,10.7-4.57,15.32-2.55Z"/><path class="cls-2" d="M322.9,448.7c-.42-.23-1.07-.31-1.38-.65-2.17-2.33-5.47-9.32-5.65-12.54-.06-1.05.78-4.43,1.78-4.7,2.7-.74,7.44.98,9.95,2.21s1.34,1.15,1.43,1.37h-.51c-.17-.02-.34.02-.51,0-4.38-3-13.86-6-10.73,3.07.02.34-.04.69,0,1.02.14,1.11.68,2.31,1.53,3.07.03.17-.04.36,0,.51.06.24.27.43.51.51.06.15-.06.37,0,.51,1.11,2.68,2.8,3.17,3.58,5.62Z"/><path class="cls-2" d="M343.33,458.92c-.24-.28-.66-.6-1.02-1.02-2.05-2.49-1.65-5.94-3.06-8.69-.06-.32.05-.7,0-1.02-.34-1.95-1.26-4.63-2.55-6.13-.05-.15.05-.36,0-.51l-1.02-1.02c-.06-.12.04-.34,0-.51v-.51c4.08,2.69,5.03,15.25,7.66,19.42Z"/><path class="cls-3" d="M331.59,454.32c1.34.51,2.8.06,2.56,2.55-2.55-.64-7.96,2.74-9.71,1.02,1.07.08,2.06-.24,3.06-.51,2.03-.54,4.01-1.35,6.13-1.54l-2.04-1.53Z"/><path class="cls-3" d="M328.01,434.39c-3.4-.46-6.08-2.94-9.9-2.07-1.24,1.38-.47,3.15-.48,4.49,0,.43-.35.62-.35.65-3.13-9.07,6.35-6.06,10.73-3.07Z"/><path class="cls-3" d="M342.31,457.9c-.68-.78-1.47-.77-2.08-2.26-.85-2.1-.66-4.7-.98-6.42,1.42,2.75,1.02,6.2,3.06,8.69Z"/><path class="cls-3" d="M339.25,448.19c-.29,0-.79.13-.95-.06-.44-.53-1.24-4.99-1.61-6.07,1.29,1.5,2.22,4.18,2.55,6.13Z"/><path class="cls-3" d="M290.72,465.56c1.38.1,4.81.33,4.6,2.04-1.56-.32-3.26-1.14-4.6-2.04Z"/><path class="cls-3" d="M317.28,438.48c1.46-.41,1.3,1.86,1.53,3.07-.86-.75-1.39-1.96-1.53-3.07Z"/><path class="cls-3" d="M290.72,459.94c-.09.23.14.76-.01,1.17-.16.43-1.87,1.21-1.01,3.43-1.81-2.16-.47-2.21.51-4.6h.51Z"/><path class="cls-3" d="M319.33,443.08l3.25,3.64c.5.5.48,1.52.83,1.98h-.51c-.77-2.45-2.46-2.94-3.58-5.62Z"/><path class="cls-3" d="M334.14,438.48c-2-.01-1.93-1.43-2.04-1.53,1.28-.07,1.46.92,2.04,1.53Z"/><path class="cls-3" d="M346.4,461.98c-2.16.39-1.3-.66-1.53-1.02.75,0,1.31.29,1.53,1.02Z"/><path class="cls-3" d="M298.89,453.3c.36,1.38-1.03.98-2.04,1.53.37-.82,1.24-1.27,2.04-1.53Z"/><path class="cls-3" d="M319.33,452.79c-.4-.11-1.36.15-1.53,0-.13-.11.12-.83,0-1.02l1.53,1.02Z"/><path class="cls-3" d="M317.28,451.77c-2.61-.33-1.01-.45-1.53-1.02l1.53,1.02Z"/><path class="cls-3" d="M331.59,436.44c-.89.11-3.35-1.14-3.06-2.04h.51c.25.55,1.84,1.38,2.55,2.04Z"/><path class="cls-3" d="M322.39,455.34c-1.65-.85-.52-.43-1.02-1.02l1.02,1.02Z"/><path class="cls-3" d="M293.28,457.39c.77-.6,2.46-2.21,3.06-2.55-.43,1.68-1.54,2.1-3.06,2.55Z"/><path class="cls-3" d="M335.67,439.5v.51c-.57-.15-.71-.64-1.02-1.02.32.19.71.3,1.02.51Z"/><path class="cls-3" d="M336.69,441.55c-.02-.07-.66-.33-1.02-1.02l1.02,1.02Z"/><path class="cls-3" d="M319.33,442.57c-.24-.08-.45-.27-.51-.51.2.12.43.3.51.51Z"/><path class="cls-3" d="M325.97,451.25c-.72-.62-.91-.8-1.53-1.53l1.53,1.53Z"/><path class="cls-3" d="M328.01,452.79c-.65-.41-.81-.87-1.02-1.02l1.02,1.02Z"/><path class="cls-3" d="M320.35,453.3c-.19-.14-.41-.48-.51-.51l.51.51Z"/><path class="cls-3" d="M329.03,453.3c-.29-.14-.41-.45-.51-.51l.51.51Z"/><path class="cls-3" d="M330.05,453.81c-.29-.13-.42-.47-.51-.51l.51.51Z"/><path class="cls-3" d="M331.08,454.32c-.39-.15-.48-.5-.51-.51l.51.51Z"/><path class="cls-3" d="M324.43,457.39c-.21-.1-.44-.29-.51-.51.21.11.43.29.51.51Z"/><path class="cls-3" d="M338.74,461.98c-.22-.09-.39-.31-.51-.51.22.07.41.3.51.51Z"/><path class="cls-3" d="M339.76,462.5l-.51-.51c.29.13.42.47.51.51Z"/><path class="cls-3" d="M340.78,463.01l-.51-.51c.27.17.37.41.51.51Z"/><path class="cls-3" d="M390.33,388.4c-5.71,3.41-12.64.74-18.39,3.07-.23-.18-1.22.4-1.02-.5,4.2-1.64,9.04-1.02,13.53-1.54,1.85-.21,4.17-.69,5.88-1.02Z"/><path class="cls-3" d="M387.77,401.69c1.68,1.28,1.48,6.46.27,7.68-1.73,1.74-8.25-.9-10.48-1.55.07,2.97-.31,6.65-2.05,9.2.33-1.47.74-3.44.97-4.91.37-2.34-1.13-4.95,2.11-4.58,5.91.68,11.77,5.64,9.18-5.84Z"/><path class="cls-3" d="M362.75,414.98c-1.71-2.07-1.27-6.69-.51-9.2-.23,2.55-.07,6.67.51,9.2Z"/><path class="cls-3" d="M383.18,397.09c-2.02-.39-4.92-.81-6.13-2.55,2.64.77,3.77,1.22,6.13,2.55Z"/><path class="cls-3" d="M363.77,401.18c-.31,1.2.17,3.97-1.53,3.58.16-1.17.6-2.77,1.53-3.58Z"/><path class="cls-3" d="M368.36,421.11c.18.09.76-.14,1.17,0,.38.14.33.91.71,1,1.33.32,2.73-.1,3.73-1.01-.16.35-.35.68-.51,1.02-2.19,1.14-3.33,1.08-5.11-1.02Z"/><path class="cls-3" d="M391.35,388.4c.27-2.28,2.61-.72,2.04-3.07.87,1.61-.31,2.63-2.04,3.07Z"/><path class="cls-3" d="M374.49,419.57c-.08-.92.07-1.77,1.02-2.04-.31,1.23-.86,1.59-1.02,2.04Z"/><path class="cls-3" d="M376.54,394.54c-.82-.23-2.25-.13-2.94-.65-.38-.29-.41-1.19-.64-1.39l3.58,2.04Z"/><path class="cls-3" d="M365.3,398.62c-.53,1.04-.18,2.4-1.53,2.04.22-.78.75-1.69,1.53-2.04Z"/><path class="cls-3" d="M368.87,394.54c.05.33-.02.69,0,1.02-.39.13-.43-.51-.5-.51l.51-.51Z"/><path class="cls-3" d="M367.85,421.11l-1.02-1.02c.52.35.96.99,1.02,1.02Z"/><path class="cls-3" d="M373.98,420.6l.51-.51c-.18.38-.5.48-.51.51Z"/><path class="cls-3" d="M364.28,417.53l-1.02-1.02c.08.14,1,.43,1.02,1.02Z"/><path class="cls-3" d="M363.26,416l-.51-.51c.02.06.4.22.51.51Z"/><path class="cls-3" d="M387.77,401.18l-.51-.51c.09.18.46.34.51.51Z"/><path class="cls-3" d="M384.71,398.11l-.51-.51c.19.13.33.37.51.51Z"/><path class="cls-3" d="M365.3,398.11l1.02-1.02c-.37.53-.99.96-1.02,1.02Z"/><path class="cls-3" d="M366.83,390.45l-.51-.51c.08.15.39.29.51.51Z"/><path class="cls-3" d="M366.32,389.43c-.24-.08-.46-.27-.51-.51.2.12.41.29.51.51Z"/><path class="cls-3" d="M387.26,379.21c-.2-.12-.36-.34-.51-.51.19.15.35.34.51.51Z"/><path class="cls-3" d="M326.99,382.27c1.19.35,4.1.94,5.34,1.04,1.96.16,10.47-.76,10.93-.47,1.09.69-.13,3.91-1.29,4.45-.39.18-.93-.01-1.19.08,5.51-5.65-.54-3.22-3.84-3.07s-7.23.04-9.96-2.04Z"/><path class="cls-3" d="M328.01,412.42c-1.82-3.19-2.84-8.88-1.02-12.26-.36,3.76.2,8.4,1.02,12.26Z"/><path class="cls-3" d="M349.97,383.81c-1.18,4.3-.51,9.52-3.06,13.29.95-3.75,1.38-7.71,2.03-11.53.16-.96-.58-2.04,1.03-1.75Z"/><path class="cls-3" d="M343.85,368.99c-2.06-.18-6.38-.2-8.68,0,2.41-.86,6.31-.86,8.68,0Z"/><path class="cls-3" d="M332.1,412.93c-.1.06-.22.74-.85.92-1.14.34-2.82.35-3.24-.92h4.09Z"/><path class="cls-3" d="M348.44,370.52c-1.2-.31-3.97.17-3.58-1.53,1.11.1,2.8.65,3.58,1.53Z"/><path class="cls-3" d="M355.59,373.59c-1.08.34-2.84,1.45-2.55-.51.63.19,1.86-.35,2.55.51Z"/><path class="cls-3" d="M334.14,368.99c.15,1.65-2.03,1.14-3.18,1.58-.26.1-1.04.61-1.93.98,1.18-1.17,3.47-2.31,5.11-2.55Z"/><path class="cls-3" d="M323.92,380.23c-.89-1.29-1.43-1.96-.93-3.74l.42-.34c-.09,1.46.34,2.68.51,4.09Z"/><path class="cls-3" d="M346.91,397.6c-.28,1.09-.66,1.83-1.53,2.55.33-.95-.13-2.89,1.53-2.55Z"/><path class="cls-3" d="M326.48,373.08c.43-.82,1.21-1.24,2.04-1.53.14,1.9-1.49,1.24-2.04,1.53Z"/><path class="cls-3" d="M352.53,373.08c-1.11.09-1.8.25-1.53-1.02.71.38,1.44.99,1.53,1.02Z"/><path class="cls-3" d="M329.54,395.05c.31,1.46-.29,1.66-1.53,2.04.61-1.12.91-1.25,1.53-2.04Z"/><path class="cls-3" d="M336.18,389.43c-.4,2.12-1.16,1.21-2.04,1.53.37-.93,1.26-1.13,2.04-1.53Z"/><path class="cls-3" d="M350.49,371.54c-1.21.02-1.77.34-1.53-1.02.81.23,1.1.8,1.53,1.02Z"/><path class="cls-3" d="M340.27,387.38c.24,1.37-.32,1.04-1.53,1.02.34-.16.79-.71,1.53-1.02Z"/><path class="cls-3" d="M341.29,405.78c-.36.37-.64.67-1.02,1.02-.12-1.09-.06-1.14,1.02-1.02Z"/><path class="cls-3" d="M344.87,401.69c-.34.73-.92.87-1.02,1.02-.12-1.09-.06-1.14,1.02-1.02Z"/><path class="cls-3" d="M335.67,410.38c-.18.13-.42.63-1.02,1.02-.14-1.05-.03-1.17,1.02-1.02Z"/><path class="cls-3" d="M333.12,412.42l.51-.51c-.15.1-.29.38-.51.51Z"/><path class="cls-3" d="M338.23,408.84l.51-.51c-.18.15-.32.36-.51.51Z"/><path class="cls-3" d="M342.82,404.24l1.02-1.02c-.4.56-.8.74-1.02,1.02Z"/><path class="cls-3" d="M344.87,401.18l.51-.51c-.15.38-.5.48-.51.51Z"/><path class="cls-3" d="M326.99,399.14c.05-.41.5-.48.51-.51l-.51.51Z"/><path class="cls-3" d="M327.5,398.11c.1-.28.46-.42.51-.51l-.51.51Z"/><path class="cls-3" d="M332.61,391.98c.18-.12.27-.79,1.02-1.02l-1.02,1.02Z"/><path class="cls-3" d="M336.69,389.43c.08-.04.23-.36.51-.51l-.51.51Z"/><path class="cls-3" d="M337.72,388.92s.14-.34.51-.51l-.51.51Z"/><path class="cls-3" d="M349.97,383.3l.51-.51c-.11.22-.47.4-.51.51Z"/><path class="cls-3" d="M326.48,382.27c-.39-.13-.48-.5-.51-.51l.51.51Z"/><path class="cls-3" d="M324.95,381.25c-.19-.14-.35-.34-.51-.51l.51.51Z"/><path class="cls-3" d="M323.41,375.63c.05-.18.4-.35.51-.51l-.51.51Z"/><path class="cls-2" d="M249.86,464.03c-4.29,4.1-10.5,6.31-9.7,13.29,2.39-1.81,2.99-5.47,5.08-7.43,5.3-4.99,16.15-5.1,22.35-1.87.74.39,1.63.87.66,1.13h-.51c-.16-.03-.36.05-.51,0-.08-.24-.27-.45-.51-.51-.15-.04-.34.03-.51,0-4.77-2.43-11.5-3.07-16.35-.51-.17.04-.36-.05-.51,0-1.23.37-1.35.99-2.04,1.53-1.01.8-1.25,1.17-2.04,2.04-1.63,1.81-2.77,3.24-4.12,5.35-.26.41-1.17,3.7-1.5,1.04-.14-1.15-.1-3.16,0-4.35.03-.33-.05-.7,0-1.02l.51-.51c.05-.16-.06-.37,0-.51l.51-.51c.18-.31.32-.79.51-1.02l.51-.51c.15-.18.35-.34.51-.51l1.02-.51c.18-.17.34-.33.51-.51l1.53-1.02c.35-.13.69-.33,1.02-.51l1.02-1.02c.76-.45.62-.19,1.53-1.02.18-.16.36-.32.51-.51h.51Z"/><path class="cls-3" d="M259.05,450.74c.36-1.45,1.48-5.85.17-6.68-1.62-1.03-7.32-.37-9.36.04,5.96-3.42,14.58-1.39,9.19,6.64Z"/><path class="cls-3" d="M266.2,468.63c-6.04-1.12-10.14-1.97-16.35-.51,4.85-2.56,11.57-1.92,16.35.51Z"/><path class="cls-3" d="M245.26,471.69c-1.86,2.69-2.66,6.35-5.37,8.17-.98-1.37-1.25-2.68-1.29-4.34-.03-.96-.44-2.09,1.04-1.79-.1,1.19-.14,3.21,0,4.35.33,2.65,1.24-.64,1.5-1.04,1.35-2.11,2.49-3.54,4.12-5.35Z"/><path class="cls-3" d="M260.07,479.36l-5.62,2.55c-.43-.96,2.91-2.12,3.96-2.44.59-.18,1.22,0,1.66-.11Z"/><path class="cls-3" d="M267.74,473.74l1.02-3.58c1.2,2.15,0,2.25-1.02,3.58Z"/><path class="cls-3" d="M247.3,445.12c.36,1.34-.79.84-1.48,1.33s-.52,1.73-2.1,1.22c1.35-1.12,1.92-1.7,3.58-2.55Z"/><path class="cls-3" d="M249.35,444.1c.24,1.37-.32,1.04-1.53,1.02.15-.07.15-.67,1.53-1.02Z"/><path class="cls-3" d="M255.48,457.39c-.31-1.48.27-1.65,1.53-2.04-.48.8-1.05,1.35-1.53,2.04Z"/><path class="cls-3" d="M259.05,451.25c-.22.79-.93,1.29-1.02,1.53-.02-1.21-.34-1.77,1.02-1.53Z"/><path class="cls-3" d="M245.26,467.09l-1.53,1.02c.08-.08-.18-.73.06-.95.32-.29,1.16.05,1.47-.07Z"/><path class="cls-3" d="M262.12,478.34c-.37.48-.95.89-1.53,1.02-.27-1.63.53-.8,1.53-1.02Z"/><path class="cls-3" d="M249.35,468.12c.36,1.42-1.07.96-2.04,1.53.69-.54.81-1.16,2.04-1.53Z"/><path class="cls-3" d="M243.22,468.63l-1.02.51c.46-.47.96-.46,1.02-.51Z"/><path class="cls-3" d="M240.15,451.25c.15-.18.35-.33.51-.51l-.51.51Z"/><path class="cls-3" d="M239.13,452.28c.13-.2.38-.33.51-.51l-.51.51Z"/><path class="cls-3" d="M238.11,453.81c.13-.39.5-.48.51-.51l-.51.51Z"/><path class="cls-3" d="M257.52,453.81l.51-.51c-.16.38-.49.47-.51.51Z"/><path class="cls-3" d="M257.01,454.83l.51-.51c-.15.28-.45.41-.51.51Z"/><path class="cls-3" d="M253.94,459.43l.51-.51c-.14.19-.36.33-.51.51Z"/><path class="cls-3" d="M248.84,464.54l.51-.51c-.15.19-.33.35-.51.51Z"/><path class="cls-3" d="M246.28,466.58c.06-.03.4-.65,1.02-1.02l-1.02,1.02Z"/><path class="cls-3" d="M267.22,469.14c-.24-.07-.42-.27-.51-.51.24.06.43.27.51.51Z"/><path class="cls-3" d="M268.25,469.65c-.17-.17-.35-.33-.51-.51h.51v.51Z"/><path class="cls-3" d="M241.17,470.16c.15-.18.36-.33.51-.51l-.51.51Z"/><path class="cls-3" d="M240.15,471.69c.12-.29.45-.4.51-.51l-.51.51Z"/><path class="cls-3" d="M239.64,472.72c.06-.37.5-.48.51-.51l-.51.51Z"/><path class="cls-3" d="M264.16,477.31l.51-.51c-.18.14-.31.38-.51.51Z"/><path class="cls-3" d="M263.65,477.83c-.33.1-.73.47-1.02.51.17-.58.56-.75,1.02-1.02v.51Z"/><path class="cls-3" d="M386.75,429.79c-.09.31.24,1.03-.25,1.01-7.01-3.28-13.48-2.37-20.19,1.03,5.54-5.1,13.84-4.07,20.43-2.04Z"/><path class="cls-3" d="M386.75,429.28c-3.12-4.44-2.92-9.27,0-13.8-.46,1.55-1.6,6.51-1.55,7.9.07,2.21,1.64,3.51,1.55,5.89Z"/><path class="cls-3" d="M369.39,441.03c3.03.72,6.06,1.27,9.2,1.02v1.02c-3.05.11-6.66-.09-9.2-2.04Z"/><path class="cls-3" d="M407.7,409.35c-.32,1.02-.7,2.36-1.53,3.07.31-.99-.3-3.39,1.53-3.07Z"/><path class="cls-3" d="M363.26,437.46c1.37.78,4.65,1.48,4.6,3.07-1.8-.65-3.22-1.6-4.6-3.07Z"/><path class="cls-3" d="M362.23,435.41v-.51c.16-.17.34-.38.51-.51.49-.37,1.03-.67,1.53-1.02-.41.49-.38,1.89-2.04,2.04Z"/><path class="cls-3" d="M403.1,417.53c.44-1.35.45-2.26,2.04-2.55-.66,1.1-1.47,1.75-2.04,2.55Z"/><path class="cls-3" d="M390.33,429.28c-.11.13-.52.96-.51,1.02l-.51-.26c-.18-.95.15-.82,1.02-.77Z"/><path class="cls-3" d="M394.42,426.22c-.29.81-.91,1.08-1.53,1.53.43-1.62.51-1.21,1.53-1.53Z"/><path class="cls-3" d="M408.21,407.82c-.08.42-.5.48-.51.51l-.51-.5h1.02Z"/><path class="cls-3" d="M391.35,428.77l.51-.51c-.16.12-.31.35-.51.51Z"/><path class="cls-3" d="M364.79,432.86c.37-.43.35-.67,1.02-1.02l-1.02,1.02Z"/><path class="cls-3" d="M362.75,436.95c-.24-.07-.46-.27-.51-.51.18.16.34.34.51.51Z"/><path class="cls-3" d="M397.48,424.17l.51-.51c-.17.17-.34.35-.51.51Z"/><path class="cls-3" d="M399.01,422.64c.62-.68,1-1.66,2.04-2.04-.59.82-1.08,1.6-2.04,2.04Z"/><path class="cls-3" d="M368.87,441.03l-.51-.51c.34.1.48.5.51.51Z"/><path class="cls-3" d="M386.75,414.98c.12-.39.5-.48.51-.51l-.51.51Z"/><path class="cls-3" d="M405.14,414.46l.51-.51c-.11.29-.46.41-.51.51Z"/><path class="cls-3" d="M405.65,413.44l.51-.51c-.13.39-.5.48-.51.51Z"/><path class="cls-3" d="M355.59,349.57c-4.81-1.22-9.8-4.71-14.85-2.25-.19.7.73,3.92,1.06,4.81-1.9-.95-2.26-4.84-.49-5.85,3.76-2.15,10.88,1.29,14.28,3.29Z"/><path class="cls-3" d="M368.87,360.3c-.1-.09-.89.31-1.04-.32-.43-1.76.15-5.88.02-8.11-.13-2.08-.38-4.47-.51-6.39,2.32,4.48-.03,10.14,1.53,14.82Z"/><path class="cls-3" d="M360.7,339.86c-1.36,4.36-.74,8.1-.51,12.52-.28.73-.49-.24-.51-.25-.37-4.18-1.69-8.83,1.02-12.26Z"/><path class="cls-3" d="M356.1,364.9c1.5.12,2.92-.1,5.04.35.9.19,1.9-.23,1.6,1.18-2.02-.52-4.77-.26-6.64-1.53Z"/><path class="cls-3" d="M366.32,341.91c-.08-.09-.82,0-1.02-.28-1.29-1.86-.84-2.36-4.09-2.27.47-.39.14-1.17,1.54-.82,1.68.42,2.79,1.94,3.57,3.37Z"/><path class="cls-3" d="M350.49,362.35c1.1.14,2.88.06,2.55,1.53-1.35-.57-1.47-.74-2.55-1.53Z"/><path class="cls-3" d="M367.34,344.46c-1.69.33-.79-.88-1.02-2.04.74.48.94,1.23,1.02,2.04Z"/><path class="cls-3" d="M341.8,352.64c2.11.72,1.77,1.71,2.55,3.07-1.02-.57-2.12-2.04-2.55-3.07Z"/><path class="cls-3" d="M353.55,363.88c1.21-.02,1.77-.34,1.53,1.02-.79-.14-1.24-.91-1.53-1.02Z"/><path class="cls-3" d="M348.95,360.81h1.02s-.51.51-.51.51c-.19-.15-.33-.36-.51-.51Z"/><path class="cls-3" d="M369.9,361.83l-.51-1.02c.45.46.39.41.51,1.02Z"/><path class="cls-3" d="M345.38,357.24c-.08-.13-.64-.37-1.02-1.02l1.02,1.02Z"/><path class="cls-3" d="M348.44,360.81c-.65-.6-.94-.9-1.53-1.53l1.53,1.53Z"/><path class="cls-3" d="M364.79,367.45c-.2-.15-.39-.45-.51-.51l.51.51Z"/><path class="cls-3" d="M177.32,451.25c.34-1.04,1.03-2.09,2.04-2.55-.5.89-.22,2.63-2.04,2.55Z"/><path class="cls-3" d="M177.32,451.77c-.37,1.15.06,3.47-1.53,3.07.14-1.11.68-2.31,1.53-3.07Z"/><path class="cls-3" d="M182.43,445.63c-.07.13.18.61-.11.9-.33.33-1.96.44-2.45,1.15.59-.97,1.31-1.98,2.55-2.04Z"/><path class="cls-3" d="M186.52,442.06c-.3,1.59-1.2,1.6-2.55,2.04.72-.64,1.57-1.79,2.55-2.04Z"/><path class="cls-3" d="M189.58,463.52c.12-.2.34-.35.51-.51-.03.23-.28.44-.51.51Z"/><path class="cls-3" d="M155.36,429.79c-5.42-.52-9.93-.82-15.32,1.53,3.6-3.59,10.84-3.08,15.32-1.53Z"/><path class="cls-3" d="M156.38,438.48c.59-.87,2.09-2.69,2.5-3.49.22-.43,1.1-2.68,1.06-2.87l-3.56-2.33c6.53.64,3.45,6.17,0,8.69Z"/><path class="cls-3" d="M149.74,445.12c-.23.18-.59.66-1.02,1.02-.14-1.06-.03-1.17,1.02-1.02Z"/><path class="cls-3" d="M137.48,433.37c.48-.86,1.15-1.61,2.04-2.04l-2.04,2.04Z"/><path class="cls-3" d="M154.85,440.52l1.53-1.53c-.58.83-1.26,1.17-1.53,1.53Z"/><path class="cls-3" d="M151.27,444.1l.51-.51c-.18.16-.32.36-.51.51Z"/><path class="cls-3" d="M356.62,443.08c-1.64-.07-3.25.65-4.6,1.53.75-1.72,3.05-2.95,4.6-1.53Z"/><path class="cls-3" d="M349.97,447.17c-.29,1.2,0,3.46-1.53,3.07.36-1.62.82-1.87,1.53-3.07Z"/><path class="cls-3" d="M358.15,444.1l-1.02-1.02c.56.16.8.52,1.02,1.02Z"/><path class="cls-3" d="M350.49,446.14c.15-.19.34-.34.51-.51l-.51.51Z"/><path class="cls-3" d="M133.39,428.26c.33-3.34.2-7.47.51-10.73,1,3.23.8,7.64-.51,10.73Z"/><path class="cls-3" d="M133.39,429.28c-.06.58-.59,1.58-1.02,2.04.23-1.16-.67-2.37,1.02-2.04Z"/><path class="cls-3" d="M127.26,418.55c-.13.13-.03,1.51-2.04,1.53.6-.49.98-1.39,2.04-1.53Z"/><path class="cls-3" d="M129.82,416.51c-.4,1.26-.56,1.84-2.04,1.53.63-.59,1.27-1.14,2.04-1.53Z"/><path class="cls-3" d="M133.9,416.51c-.07-.12-1.76-.51-2.04-.51l.28-.5c.86-.16,1.51.16,1.76,1.01Z"/><path class="cls-3" d="M131.86,432.35l.51-.51c-.1.37-.5.48-.51.51Z"/><path class="cls-3" d="M131.35,433.37l.51-.51c-.12.21-.36.33-.51.51Z"/><path class="cls-3" d="M122.16,423.15c.17-.18.34-.34.51-.51-.15.19-.34.34-.51.51Z"/><path class="cls-3" d="M130.33,416.51l.51-.51c-.13.03-.32.43-.51.51Z"/><path class="cls-3" d="M175.79,398.62s-.41-.3-.36-.66c.45-3.36,4.07-12.92-3.21-10.07.69-1.59,2.74-1.22,3.86-.54,2.5,1.52,1,8.87-.29,11.27Z"/><path class="cls-3" d="M169.66,394.54c-.29,2.1-.46,4.6-.95,6.99-.19.94.46,1.99-1.09,1.69.25-2.56,1.17-6.22,2.04-8.69Z"/><path class="cls-3" d="M171.19,389.43c-.32,1.34.1,4.54-1.53,4.09.11-1.22.6-3.29,1.53-4.09Z"/><path class="cls-3" d="M175.79,399.65c-.14.84-.5.97-.51,1.02-.94-.79-.64-1.21.51-1.02Z"/><path class="cls-3" d="M175.28,401.69c-.16.8-.5.97-.51,1.02-.94-.79-.65-1.21.51-1.02Z"/><path class="cls-3" d="M174.77,403.73c-.11.45-.5.48-.51.51l-.51-.5h1.02Z"/><path class="cls-3" d="M171.19,388.92c.07-.23.34-.36.51-.51l-.51.51Z"/><path class="cls-3" d="M322.9,403.73c.11-1.25-.15-2.57,0-3.82.31-2.4,2.4-10.56,1.55-12.16-.39-.74-3.52-1.01-4.38-.93-.14.01-2.2,1.47-2.28,1.58,1.75-3.51,5.55-3.24,7.57-.14-.37,4.39-.98,8.74-1.48,13.13-.1.84-.32,1.77-.98,2.34Z"/><path class="cls-3" d="M321.88,404.76c-.45.31-.1.7-1.53,1.02-.24-1.37.32-1.04,1.53-1.02Z"/><path class="cls-3" d="M322.39,404.76l.51-.51c-.16.56-.44.43-.51.51Z"/><path class="cls-3" d="M223.29,468.63c.28,1.72-1.99.98-2.47,2.38-1.58,4.64,2.53,4.15,5.53,3.75-.29.21-.81.97-1.02,1.02-.56.12-4.37.09-4.54-.06-.47-.41-1.42-4.6-.83-5.57.25-.41,2.78-1.45,3.33-1.52Z"/><path class="cls-7" d="M225.34,475.78c1.05-.27,7.88-1.83,8.17-1.53-.24,1.72.18,3.43.28,5.1.03.54.73.52-.52.49-6.8-.19-14.6-3-21.36-4.16-.65-.16-.83-.56-.9-1.19-.15-1.41,1.5-8.58,2.1-10.18,1.7-4.58,6.09-7.6,10.41-9.51,2.87,3.49,4.92,7.52,6.42,11.78-3.02.76-8.99.8-10.76,3.81-1.33,2.27,1.26,6.7,4.34,6.42,1.09-.1,1.6-.97,1.82-1.03Z"/><path class="cls-7" d="M332.1,416.51c-.18-.09-1.78-1.65-2.04-2.04,7.58-2.56,15.96-10.84,18.53-18.51,1.26-3.76,1.05-7.64,2.04-11.24,1.32-4.78,6.35-6.47,10.58-8.06.69.94-1.92,5.24-2.54,6.39-6.27,11.66-13.65,22.77-20.04,34.37-.87.5-5.55-.43-6.53-.9Z"/><path class="cls-6" d="M278.97,77.73c3.02,1.11,6.73.28,9.96.52,23.17,1.7,48.18,17.38,50.31,42.16s-2.52,53.97-.52,79.72c.3,3.92,2.05,11.41,7.32,9.83,3.58-1.07,7.62-9.89,9.76-12.97,1.79-2.58,7.53-9.58,10.39-10.32,1.28-.33,3.33.71,4.17,1.73,1.61,1.95,1.6,6.26,3.12,8.39.02.17-.02.34,0,.51,1.82,16.85-1.1,32.64-11.08,45.12l-.67,2.91c-1.07,1.4-1.84,2.3-3.06,3.58l-7.66,4.88c-1.7.75-3.66-.73-5.28-.3-.57.15-.28.98-.34,1.04-.08.07-.76-.24-1,.38-2.49,6.2-3.62,18.59-4.1,25.43-.65,9.14-.82,18.95-.52,28.12.03.98-.52,2.05,1.02,1.77.06,3.2.39,6.48.51,9.71.09,2.4.71,5.05.52,7.41-.54,6.57-11.31,16.14-16.1,20.7-.23.22-1.79,1.32-.77,1.53-5.09,4.75-10.51,9.31-15.84,13.8-1.35-.14-2.29.87-3.25,1.63-4.79,3.8-9.67,8.43-14.12,12.16-16.75,14.02-34.22,26.87-50.57,41.39l-19.14,16.85-19.68-34.22c-.43-.88-.67-1.82-1.02-2.55-4.6-9.64-9.15-18.41-10.69-28.91-1.54-10.54-1.56-21.34-3.1-31.89.63-.65,9.33,6.12,10.37,6.74,8.21,4.9,15.61,7.61,25.04,9.19.7.12,1.97.81,2.38-.09,2,.37,1.8,0,3.06,0-.28,1.55.78.98,1.76,1.02,20.65.81,41.53-6.65,53.61-24.06,1.21-1.75,2.37-2.61,1.26-4.73-1.35-2.58-2.51-2.56-4.7-1.26-4.31,2.57-8.17,6.57-12.47,9.09-25.12,14.73-57.36,11.5-79.04-7.66-1.41-1.25-1.98-3.18-3.85-3.56-.17-.17-.34-.34-.51-.51-.72-1.94-2.47-3.14-3.83-4.59l-.25.5c-1.88-2.08-3.85-4.46-5.62-6.64l-1.11-2.75c-3.13-2.32-5.54-8.75-8.09-10.54-5.52-8.83-11.43-17.88-14.84-27.82-.55-1.6.08-4.32-2.02-4.37-.09-.32-.34-2.24-.51-3.07.92-.42.22-1.69.09-2.38-1.91-10-1.35-21.9-1.11-31.86.13-5.17.93-10.38,1.02-14.82,1.56.28.97-.78,1.02-1.77,1.17-21.17,1.79-42.1,2.53-63.4.04-1.14,1.62-5.06-.49-4.83.15-2.42.96-2.13.96-2.27-.05-1.14-.55-2.24-.45-3.87l6.14-26.57c5.12,4.45,10.12,8.06,16.74,10.08,33.67,10.28,52.01-20.55,77.59-34,7.32-3.85,14.67-6.13,22.64-8.27,1.44-.2,3.34-.97,4.09-1.02ZM306.05,166.64c.15.12.59,2.58,3.07,1.3,3.44-1.77.27-12.44-1.09-15.29-8.42-17.67-28.28-16.11-44.38-11.3-4.56,1.36-16.66,6.56-17.65,11.44s1.46,8.05,6.52,7.58c8.13-.77,16.57-4.55,25.69-4.96,14.32-.65,18,3.25,27.83,11.24ZM169.15,160.51c.98,1.39,1.98-.74,2.45-.98,4.68-2.3,12.03-2.45,17.21-2.08,3.82.27,15.5,3.8,17.92,2.07,2.79-2,2.06-7.39,0-9.78-5.92-6.84-25.09-9.45-33.51-7.39-9.21,2.25-16.6,12.52-15.26,21.94.28,1.96,1.67,4.72,4.03,3.63.1-.05,2.07-1.55,1.03-1.79,2.2-1.98,3.4-3.78,6.13-5.62ZM288.68,173.8c1.11-.39-1.07-1.42-1.27-1.54-6.48-3.62-12.16-5.04-19.7-3.85-5.2.82-17.52,7.39-13.73,14.08.24-.05.45-.52.48-.51.99.37,1.14,1.13,2.79,1.07s2.17-.97,3.34-1.58c.41.78,2.56-.44,3.15-.69,1.36-.58,2.29-1.72,4-1.36-1.58,10.69,14.44,12.7,14.31,1.54,1.12-1.35,9.96,6.33,11.26,6.4,6.07.3,5.23-5.05,2.26-8.44-.44-.5-1.12-.39-1.26-.51-1.54-1.3-4.04-3.6-5.62-4.6ZM177.83,182.99l6.13-2.55c-.91,10.32,12.67,10.24,14.31,1.02,2.94.84,6.42,5.32,9.19,1.66,3.04-4-2.96-9.11-6.18-11.07-10.99-6.69-27.47-1.82-32.39,9.93-1.21,2.89-1.06,3.13,1.27,4.6.23.14.24.96,1.23,1,1.99.07,4.92-3.37,6.43-4.57ZM217.17,170.22c-.1-.01-.48-.75-.99-.5-2.09,4.13-2.33,9-3.75,13.38-3.21,9.87-8.65,19.33-11.69,29.18-2.24,7.28-.51,14.01,5.17,19.02,2.06,1.82,5.01,3.2,7.69,3.81.15.05.35-.05.51,0,5.9,2.59,12.79,2.29,19.09,1.47,8.19-1.06,20.04-4.22,24.56-11.71,2.26-3.74,2.84-9.98-.98-12.75-.82-.6-4.4-2.33-4.36,0-.18.03-.37-.04-.51,0-.92.29-1.06-.33-1.4,1.39-.78,3.99,1.45,8.03-3.35,10.47-1.29.65-4.85,1.72-6.47,2.21-8.06,2.46-16.14,3.78-24.41,1.4-16.14-4.65-5.11-17.49-1.3-27.11,2.2-5.54,7.93-22.15,7.26-27.39-.33-2.57-1.88-4.52-4.55-2.86-.17-.03-.34.02-.51,0ZM358.66,235.11c3.32-2.82,6.18-7.08,6.59-11.56.38-4.11-2.04-8.4-1.45-12.17.44-2.78,3.34-4.83,4.17-7.58,1.08-3.59-.73-8.8-4.68-6.22-1.86,1.21-6.02,7.36-6.93,9.42-2.84,6.49,1.3,10.14.14,16.49-.65,3.52-7.53,8.21-5.75,12.11,1.2,2.64,4.04,2.27,6.23,1.14,1.09-.57,1.13-1.17,1.68-1.64ZM293.28,255.04c.19.01.93,1.15,1.77-.53,1.73-3.45-.05-9.43-1.39-12.88-2.47-6.39-7.16-11.06-12.78-14.81-2.39-1.59-10.07-7.13-11.85-2.94-1.87,4.41,3.82,5.94,6.61,8.18,3.73,2.98,11.19,9.5,12.65,13.92.74,2.24,1.08,8.54,3.07,9.74.9.54,1.64.75,1.4-.68.14.04.33-.01.51,0ZM190.6,223.36c-1.79.34-1.7.59-3.06,1.53l-3.58,2.29c-5.59,5.35-14.56,17.41-11.61,25.42,1.28,3.47,3.96,5.04,5.59.76,1.72-4.52,1.43-8.04,4.5-12.76,2.04-3.13,9.65-9.29,10.48-12.11.52-1.78.58-4.53-1.34-5.42-.77-.36-.83.26-.97.29ZM277.95,263.73l2.86-2.75c5.78-8.03,2.09-12.64-7.21-12.63-10.25.02-20.89.99-31.14,1.09-15.98.16-33.92-1.17-49.59-.04-5.4.39-8.62,1.4-7.17,7.72.73,3.18,6.05,10.93,8.44,13.51,7.41,7.98,15.57,11.61,26.07,12.51.84.07,1.71-.05,2.55,0,.36,1.17,1.32.99,2.27,1.05,15.52,1.04,32.29-1.43,44.21-11.27,3.65-3.01,5.99-5.37,8.68-9.2ZM212.06,297.45c7.47,6.77,22.66,5.99,31.79,1.91,2.24-1,6.97-4.32,4.24-7.03-1.61-1.6-9.8.68-12.33.97-4.63.53-8.5.67-13.15,0-2.99-.43-12.85-4.58-13.09.88-.1,2.2,1.71,2.5,2.56,3.27Z"/><path class="cls-6" d="M278.97,77.73c28.56-2.06,59.29,14.16,61.29,45.23,1.12,17.44-.59,37.11-.51,54.92v22.48c.21,3.43.72,9.04,5.36,8.72.81-.06,2.32-.56,2.95-1.04,1.71-1.31,5.71-9.21,7.41-11.63,6.8-9.65,15.79-17.87,17.99.37-1.52-2.12-1.5-6.43-3.12-8.39-.84-1.02-2.89-2.06-4.17-1.73-2.86.73-8.59,7.74-10.39,10.32-2.14,3.08-6.18,11.9-9.76,12.97-5.27,1.57-7.01-5.91-7.32-9.83-2-25.75,2.73-54.1.52-79.72s-27.14-40.46-50.31-42.16c-3.22-.24-6.93.59-9.96-.52Z"/><path class="cls-6" d="M225.34,353.66c-.42.91-1.68.21-2.38.09-9.44-1.58-16.83-4.29-25.04-9.19-1.04-.62-9.74-7.39-10.37-6.74,1.54,10.55,1.56,21.35,3.1,31.89,1.54,10.5,6.09,19.27,10.69,28.91-1.24.27-1.06-.63-1.44-1.34-8.93-16.64-9.57-23.86-11.34-42.34-.63-6.56-1.53-13.11-2.03-19.68,11.32,9.93,24.02,15.69,38.82,18.39Z"/><path class="cls-6" d="M151.27,143.65c2.11-.23.53,3.7.49,4.83-.74,21.31-1.36,42.24-2.53,63.4-.05.98.54,2.05-1.02,1.77.25-12.29,2.06-25.15,2.58-37.54.45-10.63-.16-21.97.49-32.47Z"/><path class="cls-6" d="M184.98,322.49c1.86.38,2.43,2.31,3.85,3.56,21.69,19.16,53.92,22.39,79.04,7.66,4.3-2.52,8.15-6.51,12.47-9.09,2.19-1.3,3.35-1.32,4.7,1.26,1.11,2.13-.04,2.99-1.26,4.73-12.08,17.41-32.96,24.88-53.61,24.06-.98-.04-2.05.53-1.76-1.02.17,0,.34,0,.51,0,.98.88,3.2.55,4.6.51,1.02-.03,2.05.06,3.06,0,.82-.03,2.12.32,2.55-.51,17.48-1.61,33.22-8.68,43.94-22.87,2.18-2.89,1.77-7.37-1.9-5.86-2,.82-6.63,4.73-8.97,6.27-29.66,19.54-62.21,16.58-87.22-8.7Z"/><path class="cls-6" d="M358.66,248.91c-2.25,2.34-5.9,6.23-9.47,6.07-.94-.04-2.73-1.52-3.81-.45-2.39,2.36-4.45,29.42-4.6,34.24-.85.53-.51,1.94-.52,2.8-.05,4.25-.04,8.53,0,12.79,0,.86-.33,2.27.52,2.8.02,1.02-.02,2.04,0,3.07-1.54.29-.99-.78-1.02-1.77-.31-9.17-.13-18.98.52-28.12.48-6.84,1.61-19.23,4.1-25.43.25-.61.93-.3,1-.38.06-.06-.23-.88.34-1.04,1.62-.44,3.59,1.05,5.28.3l7.66-4.88Z"/><path class="cls-6" d="M148.21,262.71c-.12-.59-.69-1.41-.87-2.44-1.79-10.18-1.65-21.6-.15-31.79-.24,9.96-.8,21.86,1.11,31.86.13.69.83,1.96-.09,2.38Z"/><path class="cls-6" d="M361.72,245.33l.67-2.91c9.98-12.48,12.9-28.27,11.08-45.12.66.58.88,1.51.98,2.34,2,16.78-2.51,32.4-12.73,45.69Z"/><path class="cls-6" d="M148.72,265.77c2.1.05,1.47,2.77,2.02,4.37,3.4,9.94,9.32,19,14.84,27.82,2.55,1.79,4.96,8.22,8.09,10.54l1.11,2.75c-3.6-4.44-6.33-8.7-9.19-13.29-5.51-3.86-14.89-25.04-16.86-32.19Z"/><path class="cls-6" d="M339.76,200.37v-22.48c.04,7.31-.44,15.27,0,22.48Z"/><path class="cls-6" d="M341.29,319.93c.6,2,1.65,5.34,1.51,7.35-.42,6.14-13.18,17.92-17.86,22.29-1.02-.21.53-1.31.77-1.53,4.79-4.56,15.56-14.13,16.1-20.7.19-2.35-.43-5-.52-7.41Z"/><path class="cls-6" d="M340.78,307.16c-.85-.53-.51-1.94-.52-2.8-.04-4.25-.05-8.53,0-12.79.01-.86-.33-2.27.52-2.8-.19,6.06-.1,12.32,0,18.4Z"/><path class="cls-6" d="M309.11,363.37c-3.64,3.07-7.5,5.91-10.98,9.21l-6.39,4.59c4.46-3.73,9.33-8.36,14.12-12.16.96-.76,1.9-1.78,3.25-1.63Z"/><path class="cls-6" d="M184.47,321.98c-1.36-1.39-2.78-2.64-4.09-4.09l.25-.5c1.36,1.45,3.12,2.65,3.83,4.59Z"/><path class="cls-6" d="M233.51,354.17c-1.4.04-3.62.37-4.6-.51,1.4-.04,3.62-.37,4.6.51Z"/><path class="cls-6" d="M239.13,353.66c-.44.83-1.74.48-2.55.51.17-.01,1.6-.42,2.55-.51Z"/><path class="cls-3" d="M277.95,263.73c-2.69,3.82-5.04,6.19-8.68,9.2-6.54,4.16-13.26,7.37-20.93,8.96-8.81,1.83-16.71,1.77-25.56,1.26-.84-.05-1.71.07-2.55,0-13.31-2.3-23.56-8.05-30.55-19.77-2.1-3.52-6.76-10.94-.51-12.58,2.05-.54,6.96-.77,9.33-.88,26.02-1.2,52.56.74,78.63-.43,10.23,1.83,4.49,9.05.82,14.25ZM202.86,267.3c3.17,3.32,8.21,5.05,12.66,5.99,15.09,3.19,42.65,1.22,53.24-11.36.51-.61,3.36-5.02,3.06-5.36-.6.25-1.09.5-1.77.52-20.24.71-40.06.99-60.26.48-4.17-.1-8.37.12-12.53.02.84,3.65,2.11,6.85,5.11,9.19.17.16.32.38.51.51Z"/><path class="cls-3" d="M217.68,170.22c4.46.68,4,2.26,3.52,6.85-.83,8-6.32,21.12-9.56,28.76-2.38,5.61-7.55,11.5-3.16,17.8,6.51,9.33,27.98,5.76,36.96,1.71,7.6-3.42,5.23-5.85,6.46-13.21.14-.04.33.03.51,0,3.32-.51,5.23.24,6.01,3.95,3.92,18.54-32.48,22.7-44.32,19.05-.16-.05-.36.05-.51,0-6.49-2.25-13.36-9.26-13.29-16.58.06-6.41,6.76-19,9.22-25.56,2.67-7.12,4.21-13.59,6.37-20.71.25-.81.33-1.7,1.28-2.04.17.02.35-.03.51,0Z"/><path class="cls-3" d="M163.02,166.13c-1.89,1.71-3.54,2.54-4.05-.8-1.64-10.62,5.81-21.39,16.62-22.65,7.13-.83,25.78,1.42,30.34,7.35,2.55,3.33,3.29,9.62-2.27,9.48-3.1-.08-8.27-2.05-11.84-2.51-8.22-1.07-15.6-1.27-22.67,3.51-2.73,1.84-3.93,3.64-6.13,5.62Z"/><path class="cls-3" d="M288.68,173.8c1.58,1,4.08,3.3,5.62,4.6.78,2.15,4.67,5.14,2.02,7.39-3.52,2.99-9.95-5.27-14.56-5.84-1.47-.18-.35,3.12-1.01,4.58-2.19,4.82-11.21,3.56-11.96-1.3-.24-1.53.09-3.27-.03-4.83-3.19-.51-5.57,1.71-8.17,3.07-1.17.61-1.74,1.52-3.34,1.58s-1.81-.7-2.79-1.07c-2.04-4.52,2.31-7.81,5.78-9.81,9.5-5.46,19.46-4.08,28.45,1.63Z"/><path class="cls-3" d="M170.17,186.57c-2.83-3.18,1.87-8.49,4.33-10.74,5.92-5.44,14.34-7.76,22.12-5.24,3.68,1.2,12.65,6.74,10.57,11.37s-8.73-2.05-9.43-1.52c-.5,6.42-8.74,10.16-12.5,4.07-1.23-1.99-.19-3.54-1.55-5.07-2.38.66-4.03,2.08-5.88,3.56-1.51,1.2-4.44,4.64-6.43,4.57-.99-.03-1-.85-1.23-1Z"/><path class="cls-3" d="M293.28,255.04c-.18-.01-.37.04-.51,0-.53-.15-1.25.25-1.79-.5-.74-1.04-.9-5.71-1.55-7.66-1.93-5.88-7.68-10.12-12.12-13.83-1.33-1.11-7.13-5.34-7.48-5.93-1.82-3.12,1.06-4.3,4.04-3.52,2.37.62,12.29,7.49,14,9.49,3.76,4.38,7.82,13.82,6.89,19.61-.16,1-.52,1.89-1.5,2.33Z"/><path class="cls-3" d="M190.6,223.36c1.85,1.09,2.36,2.42,1.66,4.46-1.59,4.63-8.91,9.7-11.77,14.8-2.4,4.28-1.94,7.17-3.28,11.02-1.1,3.14-3.9.43-4.36-2.04-1.63-8.88,7.68-21.85,14.69-26.71,1.37-.95,1.27-1.19,3.06-1.53Z"/><path class="cls-6" d="M220.23,283.14c-10.51-.9-18.67-4.53-26.07-12.51-2.4-2.58-7.71-10.33-8.44-13.51-1.45-6.32,1.77-7.33,7.17-7.72,15.67-1.13,33.61.2,49.59.04,10.25-.1,20.89-1.07,31.14-1.09,9.3-.02,12.98,4.59,7.21,12.63l-2.86,2.75c3.66-5.2,9.41-12.42-.82-14.25-26.07,1.17-52.61-.76-78.63.43-2.38.11-7.28.35-9.33.88-6.25,1.64-1.59,9.06.51,12.58,6.99,11.72,17.24,17.47,30.55,19.77Z"/><path class="cls-6" d="M217.68,170.22c2.67-1.66,4.22.28,4.55,2.86.67,5.25-5.06,21.85-7.26,27.39-3.82,9.62-14.84,22.46,1.3,27.11,8.27,2.38,16.35,1.06,24.41-1.4,1.62-.49,5.19-1.56,6.47-2.21,4.8-2.44,2.57-6.48,3.35-10.47.34-1.72.47-1.09,1.4-1.39-1.23,7.36,1.14,9.79-6.46,13.21-8.99,4.05-30.45,7.62-36.96-1.71-4.39-6.29.77-12.19,3.16-17.8,3.24-7.63,8.73-20.76,9.56-28.76.47-4.58.94-6.16-3.52-6.85Z"/><path class="cls-6" d="M306.05,166.64c-9.84-7.99-13.51-11.89-27.83-11.24-9.12.41-17.56,4.2-25.69,4.96-5.06.48-7.51-2.64-6.52-7.58s13.08-10.08,17.65-11.44c16.09-4.81,35.96-6.36,44.38,11.3,1.36,2.85,4.53,13.52,1.09,15.29-2.48,1.28-2.92-1.18-3.07-1.3,2.34,1.37,3.34.64,3.58-1.78.84-8.62-5.22-19.01-12.76-23.01-10.56-5.6-36.36-1.07-45.95,6.17-3.43,2.59-7.51,9.61-1.59,11.23,4.07,1.11,19.36-3.91,25.31-4.36,9.05-.67,18.51,0,25.8,5.86,1.52,1.22,4.55,5.26,5.61,5.88Z"/><path class="cls-6" d="M212.06,297.45c-.85-.77-2.66-1.08-2.56-3.27.24-5.46,10.1-1.31,13.09-.88,4.65.67,8.52.52,13.15,0,2.54-.29,10.72-2.57,12.33-.97,2.73,2.71-1.99,6.03-4.24,7.03-9.13,4.08-24.31,4.86-31.79-1.91,6.03,4.97,20.64,4.68,27.81,2.52,1.86-.56,11.51-4.33,7.65-7.08-1.78-1.27-10.87,1.27-13.75,1.48-2.4.18-5.78.18-8.19.03-3.04-.18-12.63-2.95-14.33-1.61-1.6,1.26-.43,3.62.81,4.65Z"/><path class="cls-6" d="M163.02,166.13c1.04.25-.93,1.75-1.03,1.79-2.36,1.1-3.75-1.66-4.03-3.63-1.34-9.42,6.05-19.69,15.26-21.94,8.42-2.06,27.58.55,33.51,7.39,2.06,2.38,2.79,7.78,0,9.78-2.42,1.73-14.1-1.8-17.92-2.07-5.18-.37-12.53-.22-17.21,2.08-.47.23-1.47,2.36-2.45.98,7.06-4.78,14.44-4.58,22.67-3.51,3.57.46,8.74,2.43,11.84,2.51,5.56.14,4.83-6.15,2.27-9.48-4.55-5.94-23.21-8.18-30.34-7.35-10.82,1.26-18.26,12.03-16.62,22.65.52,3.34,2.17,2.51,4.05.8Z"/><path class="cls-6" d="M269.27,272.92c-11.92,9.84-28.69,12.31-44.21,11.27-.95-.06-1.91.12-2.27-1.05,8.84.51,16.74.57,25.56-1.26,7.66-1.59,14.38-4.8,20.93-8.96Z"/><path class="cls-6" d="M252.41,212.12c-.05-2.33,3.53-.59,4.36,0,3.83,2.76,3.24,9,.98,12.75-4.52,7.49-16.38,10.65-24.56,11.71-6.3.82-13.19,1.13-19.09-1.47,11.85,3.65,48.25-.5,44.32-19.05-.78-3.7-2.69-4.46-6.01-3.95Z"/><path class="cls-6" d="M170.17,186.57c-2.33-1.46-2.48-1.7-1.27-4.6,4.92-11.74,21.4-16.61,32.39-9.93,3.22,1.96,9.22,7.07,6.18,11.07-2.78,3.65-6.25-.82-9.19-1.66-1.64,9.22-15.23,9.3-14.31-1.02l-6.13,2.55c1.85-1.48,3.51-2.9,5.88-3.56,1.35,1.52.32,3.08,1.55,5.07,3.76,6.09,12,2.36,12.5-4.07.7-.53,7.4,6.06,9.43,1.52s-6.89-10.18-10.57-11.37c-7.78-2.53-16.2-.21-22.12,5.24-2.45,2.26-7.16,7.57-4.33,10.74Z"/><path class="cls-6" d="M288.68,173.8c-8.99-5.71-18.95-7.1-28.45-1.63-3.47,1.99-7.82,5.29-5.78,9.81-.03-.01-.24.46-.48.51-3.79-6.68,8.53-13.26,13.73-14.08,7.54-1.19,13.21.24,19.7,3.85.2.11,2.38,1.15,1.27,1.54Z"/><path class="cls-6" d="M358.66,235.11c-.55.46-.59,1.07-1.68,1.64-2.19,1.14-5.03,1.5-6.23-1.14-1.78-3.9,5.1-8.59,5.75-12.11,1.17-6.35-2.98-10-.14-16.49.9-2.06,5.07-8.21,6.93-9.42,3.96-2.58,5.76,2.63,4.68,6.22-.82,2.75-3.73,4.8-4.17,7.58-.59,3.77,1.83,8.07,1.45,12.17-.41,4.48-3.27,8.74-6.59,11.56.79-.73,3.28-4.38,3.85-5.6,4.11-8.69-.48-11.38.24-17.6.41-3.56,7.26-9.25,4.3-13.05-3.29-4.22-9.49,6.85-10.32,9.54-1.85,5.96,2.01,9.82.8,15.11-.44,1.93-9.95,11.43-4.64,13.03.72.22,1.69.23,2.42.09.19-.03,3.21-1.39,3.35-1.52Z"/><path class="cls-6" d="M292.76,255.04c.23,1.42-.51,1.22-1.4.68-1.99-1.2-2.33-7.5-3.07-9.74-1.46-4.41-8.92-10.94-12.65-13.92-2.8-2.23-8.49-3.77-6.61-8.18s9.46,1.35,11.85,2.94c5.62,3.75,10.3,8.42,12.78,14.81,1.34,3.45,3.12,9.43,1.39,12.88-.84,1.68-1.57.55-1.77.53.98-.44,1.34-1.33,1.5-2.33.92-5.79-3.13-15.23-6.89-19.61-1.72-2-11.64-8.87-14-9.49-2.98-.78-5.87.4-4.04,3.52.35.59,6.15,4.82,7.48,5.93,4.44,3.71,10.19,7.95,12.12,13.83.64,1.95.81,6.63,1.55,7.66.54.75,1.26.35,1.79.5Z"/><path class="cls-6" d="M190.6,223.36c.15-.03.2-.64.97-.29,1.92.89,1.86,3.64,1.34,5.42-.83,2.82-8.44,8.98-10.48,12.11-3.07,4.72-2.78,8.24-4.5,12.76s-4.32,2.71-5.59-.76c-2.96-8.02,6.02-20.07,11.61-25.42l3.58-2.29c-7.01,4.86-16.32,17.82-14.69,26.71.45,2.48,3.26,5.18,4.36,2.04,1.35-3.85.89-6.74,3.28-11.02,2.86-5.11,10.18-10.18,11.77-14.8.7-2.04.19-3.37-1.66-4.46Z"/><path class="cls-6" d="M217.17,170.22c-.96.33-1.04,1.22-1.28,2.04-2.16,7.12-3.7,13.6-6.37,20.71-2.46,6.56-9.16,19.15-9.22,25.56-.07,7.33,6.81,14.33,13.29,16.58-2.67-.61-5.63-1.99-7.69-3.81-5.68-5.01-7.42-11.74-5.17-19.02,3.04-9.85,8.48-19.31,11.69-29.18,1.43-4.38,1.66-9.25,3.75-13.38.51-.24.89.49.99.5Z"/><path class="cls-6" d="M260.58,181.46c2.61-1.36,4.98-3.58,8.17-3.07.12,1.56-.21,3.3.03,4.83.75,4.86,9.78,6.12,11.96,1.3.66-1.45-.46-4.76,1.01-4.58,4.61.58,11.04,8.83,14.56,5.84,2.65-2.25-1.24-5.24-2.02-7.39.14.12.82.01,1.26.51,2.97,3.39,3.81,8.74-2.26,8.44-1.29-.06-10.13-7.74-11.26-6.4.14,11.16-15.89,9.16-14.31-1.54-1.71-.36-2.64.78-4,1.36-.58.25-2.74,1.46-3.15.69Z"/><path class="cls-7" d="M202.35,266.79c-1.4-2.75-3.32-5.11-4.09-8.17,7.75.01,15.51-.02,23.26-.03,11.48,0,23.17-.02,34.72-.48,4.68-.19,9.37-.32,14.04-.51-2.41,6.73-10.08,10.7-16.58,12.79-13.57,4.37-38.71,5.33-50.84-3.08-.19-.13-.34-.35-.51-.51Z"/><path class="cls-2" d="M202.35,266.79c-3-2.34-4.26-5.55-5.11-9.19,4.17.09,8.36-.13,12.53-.02,20.2.51,40.03.23,60.26-.48.69-.02,1.18-.27,1.77-.52.29.34-2.55,4.75-3.06,5.36-10.59,12.57-38.15,14.55-53.24,11.36-4.45-.94-9.49-2.67-12.66-5.99,12.13,8.41,37.27,7.45,50.84,3.08,6.5-2.09,14.17-6.06,16.58-12.79-4.67.19-9.36.32-14.04.51-11.55.47-23.24.48-34.72.48-7.75,0-15.51.04-23.26.03.76,3.06,2.68,5.43,4.09,8.17Z"/><path class="cls-3" d="M306.05,166.64c-1.06-.62-4.09-4.66-5.61-5.88-7.28-5.86-16.74-6.54-25.8-5.86-5.95.44-21.25,5.47-25.31,4.36-5.92-1.62-1.84-8.64,1.59-11.23,9.59-7.25,35.39-11.77,45.95-6.17,7.54,4,13.6,14.39,12.76,23.01-.24,2.43-1.24,3.16-3.58,1.78Z"/><path class="cls-3" d="M212.06,297.45c-1.25-1.03-2.41-3.39-.81-4.65,1.7-1.34,11.28,1.42,14.33,1.61,2.41.15,5.79.15,8.19-.03,2.88-.22,11.97-2.75,13.75-1.48,3.87,2.75-5.79,6.52-7.65,7.08-7.16,2.16-21.78,2.44-27.81-2.52Z"/><path class="cls-3" d="M358.66,235.11c-.14.12-3.16,1.48-3.35,1.52-.74.14-1.71.13-2.42-.09-5.31-1.6,4.2-11.1,4.64-13.03,1.21-5.29-2.64-9.14-.8-15.11.83-2.69,7.03-13.76,10.32-9.54,2.96,3.8-3.89,9.49-4.3,13.05-.72,6.22,3.87,8.92-.24,17.6-.58,1.22-3.06,4.87-3.85,5.6Z"/><path class="cls-3" d="M323.92,56.78c1.06-5.19.45-6.26,6.26-5.49,17.85,2.37,33.75,21.41,31.62,39.65,9.49,2.66,16.83,9.13,21.15,17.93,8.89,18.15,2.02,49.57-3.09,68.49-.45,1.67-2.21,5.25-2.28,6.42-.09,1.42,2.32,7.68,2.8,9.93,4.66,21.81-2.76,51.35-21.85,64.5-1.48,1.02-5.21,2.43-5.98,3.22s-2.11,7.22-2.42,8.82c-2.2,11.64-2.7,23.52-1.95,35.37,2.27,1.44,5,2.47,7.16,4.08,6.82,5.06,20.3,24.5,24.36,32.36.54,1.05.63,2.51,1.21,3.39,1.21,1.85,23.2,12.56,27.14,14.75,9.53,5.32,18.9,11.01,28.09,16.9.88.13,1.9-1.99,2.3-2.68,11.09-18.81,20.22-47.18,23.76-68.72,9.52-57.79-6.96-116.36-42.15-162.45-.38-3.23,3.13-7.46,6.31-4.74s9.92,13.55,12.52,17.62c61.52,96.52,36.39,226.95-55.74,293.76-95.18,69.02-223.75,46.9-291.52-48.07-68.75-96.34-53.27-223.91,38.98-298.06.3-14.2,7.96-27.13,20.69-33.5-4.22-5.85-4.59-15.91-.42-21.85,1.91-2.72,2.52-.12,4.65,1.31,14,9.4,24.29-10.41,32.82-17.99,17.71-15.73,44.88-16.75,67.35-13.75,27.42,3.67,51.37,16.94,68.25,38.77ZM274.89,78.76c-28.28,4.01-37.97,21.09-59.81,34.45-16.72,10.23-40.42,13.65-55.6-1.52-1.04-1.04-.62-2.58-2.07-2.27-2.75,9.16-5.01,18.5-5.62,28.1-.1,1.63.4,2.72.45,3.87,0,.14-.81-.15-.96,2.27-.65,10.5-.04,21.84-.49,32.47-.52,12.38-2.32,25.24-2.58,37.54-.09,4.44-.9,9.65-1.02,14.82-1.5,10.19-1.64,21.61.15,31.79.18,1.03.75,1.85.87,2.44.17.82.42,2.75.51,3.07,1.97,7.15,11.35,28.33,16.86,32.19,2.87,4.59,5.6,8.84,9.19,13.29,1.77,2.19,3.74,4.56,5.62,6.64,1.31,1.45,2.73,2.7,4.09,4.09.17.17.34.34.51.51,25.01,25.29,57.56,28.24,87.22,8.7,2.34-1.54,6.97-5.45,8.97-6.27,3.67-1.51,4.08,2.97,1.9,5.86-10.72,14.19-26.46,21.27-43.94,22.87-.96.09-2.38.5-2.55.51-1.01.06-2.05-.03-3.06,0-.98-.89-3.2-.55-4.6-.51-.17,0-.34,0-.51,0-1.26,0-1.06.37-3.06,0-14.8-2.7-27.5-8.46-38.82-18.39.5,6.57,1.41,13.12,2.03,19.68,1.77,18.48,2.4,25.7,11.34,42.34.38.71.2,1.62,1.44,1.34.35.74.59,1.67,1.02,2.55,5.95,12.17,13.39,23.6,19.42,35.77.88.65,2.82-3.08,3.55-3.85,4.53-4.74,10.86-10.11,15.85-14.54,16.35-14.52,33.82-27.36,50.57-41.39l6.39-4.59c3.48-3.3,7.34-6.14,10.98-9.21,5.32-4.49,10.75-9.05,15.84-13.8,4.68-4.37,17.44-16.14,17.86-22.29.14-2.01-.92-5.34-1.51-7.35-.12-3.23-.45-6.51-.51-9.71-.02-1.02.02-2.04,0-3.07-.1-6.07-.19-12.33,0-18.4.15-4.82,2.21-31.87,4.6-34.24,1.08-1.07,2.86.41,3.81.45,3.57.15,7.22-3.74,9.47-6.07,1.23-1.28,1.99-2.18,3.06-3.58,10.21-13.29,14.73-28.91,12.73-45.69-.1-.84-.31-1.77-.98-2.34-.02-.17.02-.34,0-.51-2.21-18.24-11.19-10.02-17.99-.37-1.7,2.42-5.71,10.32-7.41,11.63-.63.48-2.14.98-2.95,1.04-4.64.32-5.15-5.28-5.36-8.72-.44-7.21.04-15.17,0-22.48-.09-17.82,1.63-37.48.51-54.92-2-31.06-32.73-47.29-61.29-45.23-.75.05-2.64.82-4.09,1.02ZM129.81,115.55c-.32-.38-3.63,2.4-4.09,2.8-47.21,41.05-73.03,107.86-68.44,170.16,3.04,41.18,19.9,81.15,44.74,113.65l58.62-30.69c4.62-6.88,8.98-14.05,14.37-20.38,1.16-1.36,4.2-3.63,4.89-4.82,1.23-2.14-.71-9.86-1.04-12.81-.25-2.22.48-4.6-.39-6.76-17.34-21.1-35.94-44.08-38.43-72.44-1.83-20.85,3.2-42.3,3.08-62.87-.11-19.08-9.18-35.05-12.13-53.26-1.23-7.58-1.35-14.91-1.17-22.59ZM344.36,339.35c-.15.18-.36.33-.51.51-3.84,4.62-7.87,9.53-12.26,13.8-.17.17-.34.34-.51.51-.67.65-1.66,1.22-2.55,2.04-1.67,1.54-3.41,3.08-5.11,4.6-1.88,1.68-4.04,3.09-5.62,5.11-5.71,4.24-11.22,8.83-16.86,13.29-7.41,5.86-15.46,11.64-22.48,17.88-.18.16-.34.35-.51.51-1.63.55-3.48,2.2-4.6,3.58-.12.08-.39-.08-.51,0-4.42,3.02-9.1,7.28-13.28,10.73-4.87,4.01-9.58,8.09-14.3,12.26-3.26,2.88-6.5,5.73-9.71,8.69-2.03,1.88-4.12,3.7-6.13,5.62-3.26,3.11-6.37,6.4-9.7,9.46l.76.25c7.79-4.75,15.94-9.34,24.33-12.97,10.46-4.52,21.91-7.3,32.26-11.67,1.88-.79,6.48-2.72,7.75-4,4.31-4.36.42-18.09,4.09-20.44,2.91-1.87,11.12,1.72,14.19,3.14.72.34,1.82,1.88,3.46,2.28,1.95.47,9.76-1.84,10.49-3.34.89-1.82-1.7-9.24.76-11.75-.12,1.84-.54,4.27-.53,5.85s1.05,4.09.89,5.58c-.13,1.22-1.51,3.04-.9,4.89l-1.5.53c1.16-.25,2.43-.3,3.57-.51-.4,1.19-5.73,1.45-4.08,2.8,5.04,2.15,10.06,5.28,14.97,7.54.7.32,1.5.22,1.88.39,1.99.85,3.42,2.73,6.15,1.83,1.98-.65,4.73-7.7,6-9.85,4.41-7.42,9.43-14.87,13.52-22.26,2.1-3.8,4.02-7.74,5.99-11.61-4.53,1.8-9.1,3.9-12.77,7.15,1.64-2.54,2.92-3.36,5.61-4.61v-.5c-1.89.34-.98-2.56.47-2.64.14-.31-.45-.34-.46-.43-.03-.33.01-.68,0-1.02,2.66-1,7.54-1.93,8.68-4.61.51.45.51,1.66,1.55.78.68-.58,3.07-5.41,3.05-6.4,2.5-4.17,5.64-10.92,4.36-15.86-.87-3.35-6.49-9.16-8.66-12.28-3.14-4.5-8.84-14.75-12.79-17.85-1.31-1.03-3.07-1.45-4.36-2.56,1.52,9.49,1.93,17.5-4.09,25.55ZM186.52,425.71c8.05,4.97,17.25,8.76,25.47,13.61.79.47,4.14,3.24,4.41,3.24s.75-.73.76-1.24c0-.8-2.85-6.08-3.48-7.27-10.63-20.06-25.75-39.03-30.06-61.9-1.11-5.9-1.8-11.97-1.7-17.98-2.38,3.15-5.28,5.96-7.63,9.09-8.39,11.21-19.03,35.4-22.38,49.03-.23.92-.58,1.75.64,1.67,4.28-.26,9.15-2.58,13.45-3.16l1.62-6.55c0,.07.49.39.49.8,0,1.11-.67,2.15-.49,3.29,1.23-.38-.36-2.92,1.77-2.03.8.33,1.11,2.88,3.31,2.01.34-.87-.09-3.36,1.56-3.04-.33,1.2-.81,2.35-1.02,3.57.41.39,8.53-3.17,10.35,1.17,1.06,2.52-2.41,7.97-2.23,10.84.11,1.81,1.06,1.88,2.09,2.81s1.91,1.33,3.06,2.04ZM371.94,374.1c-2.11,4.27-5.92,9.56-6.13,14.31-1.03-.53-.94-.98-1.64.15-5.04,8.1-9.86,16.38-14.79,24.54-2.73,4.52-5.06,12.19-11.03,13.02-5.2.72-22.13-9.57-27.87-12.26s-11.52-5-17.2-7.06v8.43c0,1.07-1.65,6.97-2.34,7.88-1.2,1.57-8.18,5.17-10.29,6.05-10.59,4.42-22.3,7.18-33.18,11.77-3.07,1.3-17.04,7.34-18.56,9.06-.68.77,1.01,4.07,1.46,5.17,1.57,3.83,3.57,7.71,5.45,11.41.61-4.04-.35-8.77,2.3-12.26-1.22,4.14-2.29,13.35-1.32,17.41.32,1.33,1.54,2.19,1.34,3.76-.26,1.98-2.18,1.54-2.5,1.89-.18.21-.18,3.26-.02,3.45.94,1.12,16.34.73,18.84,1.59,30.38.55,60.57-5.39,88.37-17.38.08-.1-1.32-1.85-1.53-2.04,1.61.22.54,1.24,2.73.99,1.9-.22,2.27-.41,2.89-2.01s-.12-4.12.06-6.33c.12-1.45.57-3.72,1.47-4.91-.69,3.69-.5,7.5-.51,11.24.36.41,9.21-4.35,9.73-4.86.26-.26,1.54-6.39,1.54-7.15,0-1.34-.63-4.03-1.06-5.37,2.8,3.4,1.2,7.93.76,11.75,3.24-2.03,6.63-3.89,9.84-5.97s6.68-4.52,9.83-6.8c4.28-3.1,8.28-6.57,12.54-9.71.47-.76-.53-2.28-.8-3.06,1.13.12.93,1.95,1.03,2.04.83.74,5.92-3.95,6.63-5.11.96-.79,1.29-1.28,2.04-2.04,2.5-2.2,5.48-4.17,7.15-7.15,1.39-1.28,2.3-2.18,3.58-3.58.51-.56,1.65-.75,1.53-2.04.19-.17.34-.34.51-.51,6.84-6.61,13.73-17.32,18.44-25.63.46-.81,2.4-1.9,1.78-3.5l-51.69-29.07c-1.03-.25-.56.15-.76.66-2.7,7.02-5.32,12.5-8.64,19.22ZM175.79,426.73c-.28-1.58-1.88-2.76-2.03-4.39-.23-2.44,1.67-4.61,1.83-6.3.05-.5-.23-1.02-.56-1.04-1.35-.1-9.73,3.36-11.9,3.93-3.99,1.05-10.11,2.59-14.12,2.15-6.77-.76-4.32-5.97-3.33-10.91l10.69-28.39-39.84,20.95c-3.48,1.73-6.93,3.77-10.21,5.88,4.38,4.46,7.99,10.02,12.76,14.05,1.14.97,1.02,2.2,2.55,1.02-.14.26-.43.6-.42.85.03.81,6.4,7.1,7.57,8.1.71.61,1.56.86,2.05,1.26,2.02,1.67,2.6,1.58,4.09,2.55.16.11,1.25,2.22,2.31,3.05,3.55,2.76,7.83,4.87,10.97,7.17.51.37-.82.22,1.53,1.02.02,1.64,4.34,3.24,5.71,4.14,5.92,3.88,12.11,7.5,18.57,10.67,1.04.14.66-.05.75-.75.24-1.82-.15-4.22,1.03-5.88,0,.04.39.27.34.65-.17,1.55-1.28,5.91-.36,6.77.35.33,8.27,3.79,8.95,3.84,3.74.26,1.65-1.72,4.34-2.58-.79,1.25-1.67,2.4-2.55,3.57l17.36,6.14c.63-3.4,1.42-6.79,2.42-10.1,1.17-3.87,4.6-10.64,5.14-13.79.15-.86.15-1.35-.12-2.19-1.17-3.63-18.03-12.16-22.07-14.21-4.33-2.2-9.15-3.6-12.95-6.71-.17-.17-.36-.34-.51-.51ZM224.32,468.63c1.65-1.18,4.08-.77,5.88-1.03.66-.09.93.29.77-.76-.26-1.69-6.04-12.23-7.16-12.81-1.69-.88-9.06,5.51-10.14,7.26-.58.95-1.22,2.91-1.58,4.05-.45,1.43-2.21,9.31-2,10.15.23.94,7.52,2.35,9.03,2.69,5.25,1.17,10.58,2.12,15.93,2.71l-1.51-7.45c-.57-.45-5.45,1.14-6.66,1.32-.3-1.44.71-.96,1.61-1.17s4.83-.71,5-.89c.19-.2.07-2.17-.08-2.68-1.04-3.41-5.98-1.25-8.34-.95-.36.05-.69-.45-.74-.44ZM235.55,476.29c.25-2.13-.75-2.13-.5,0h.5Z"/><path class="cls-6" d="M274.89,78.76c-7.97,2.13-15.32,4.42-22.64,8.27-25.58,13.45-43.92,44.28-77.59,34-6.62-2.02-11.62-5.62-16.74-10.08l-6.14,26.57c.61-9.6,2.87-18.95,5.62-28.1,1.45-.31,1.03,1.23,2.07,2.27,15.18,15.17,38.88,11.75,55.6,1.52,21.83-13.36,31.53-30.44,59.81-34.45Z"/><rect class="cls-1" width="509.48" height="506.68"/></svg>