<?xml version="1.0" encoding="UTF-8"?><svg id="Layer_1" xmlns="http://www.w3.org/2000/svg" viewBox="0 0 512 512"><defs><style>.cls-1{fill:#27487c;}</style></defs><path class="cls-1" d="M123.19,451.06c-3.58-3.35-6.02-8.78-6.4-13.69V66.67c.36-10.53,8.48-18.88,18.86-20.1h195.25c9.88.78,14.63,8.44,20.91,14.74,17.58,17.66,35.32,35.15,52.85,52.86,4.56,4.61,8.11,7.07,8.87,14.34l.07,308.44c-.93,10.16-7.98,18.72-18.44,19.69H135.23c-4.45-.61-8.77-2.54-12.04-5.59ZM328.6,58.19h-192.53c-3.54,0-8.45,6.1-8.1,9.73v366.97c.22,5.45,3.25,9.64,8.91,10.16,86.21-.3,172.54.52,258.67-.41,1.93-.13,6.4-4.95,6.4-6.45V129.09h-55.33c-7.44,0-18.03-10.65-18.03-18.04v-52.86ZM340.2,65.66v44.16c0,3.03,5.16,7.67,8.08,7.67h42.69c.12,0,.46.52.82.42l.02-.85-51.61-51.4Z"/><path class="cls-1" d="M159.8,372.15l209.64-.12c7.34.41,8.07,9.75,1.24,11.64h-210.59c-6.66-.47-6.89-10.53-.3-11.52Z"/><path class="cls-1" d="M159.38,401.59l162.8-.11c5.59,1.03,6.62,8.97,1.25,11.22-54.79.73-109.88.51-164.7.11-5.46-1.41-4.76-10.32.64-11.23Z"/><path class="cls-1" d="M156.73,111.82c.51-.5,1.36-.79,2.01-1.1,27.76-.65,55.64-.09,83.44-.28,7.45.8,7.48,10.85,0,11.6h-81.23c-5.3.03-8.01-6.53-4.22-10.22Z"/><path class="cls-1" d="M158.96,143.7l57.9-.06c6.56.93,6.72,10.62.05,11.58l-57.18-.04c-5.99-1.41-6.41-9.46-.76-11.49Z"/><path class="cls-1" d="M231.98,200.86c-14.04-2.01-14.18-25.18-1.23-28.88l68.21-.18c12.65,2.19,13.44,23.06,2.69,27.99-1.21.55-3.1.3-3.32,1.65l.02,38.55c12.02,24.36,27.49,47.8,39.43,72.09,7.6,15.47.62,30.91-16.43,33.88l-113.16-.02c-15.07-2.57-23.02-17.26-16.98-31.49l40.72-73.7.05-39.88ZM297.1,183.41h-63.83c-.87,9.59,1.71,5.23,6.93,6.96,1.72.57,2.92,2.79,3.41,4.47l-.02,45.95c-.59,3.06-2.09,5.81-3.47,8.55-5.9,11.78-13.18,22.91-18.87,34.82,11.96-3.62,24.78-5,36.87-1.02,6.73,2.22,12.97,6.47,19.82,8.36,11.04,3.05,23.31,1.4,32.8-5.11-7.55-14.55-16.18-28.58-23.37-43.3l-.58-2.74-.03-45.53c.32-2.1,2.68-4.45,4.77-4.77,1.43-.22,4.34.48,5.19-.61s.13-4.53.37-6.05ZM326.38,331.69c7.2-6.83,1.3-14.93-2.27-21.69-2.38-4.5-4.97-9.13-7.73-13.32-14.52,9.75-31.26,11.03-47.45,4.67-17.17-6.73-22.38-11.39-42.29-7.45-2.39.47-12.18,2.65-13.49,3.92-3.13,6.57-7.66,13.01-10.76,19.51-4.63,9.71.26,17.11,10.79,17.42,36.38-.39,72.94.81,109.22-.61,1.33-.65,2.92-1.42,3.99-2.43Z"/><circle class="cls-1" cx="258.8" cy="252.75" r="8.62"/><path class="cls-1" d="M264.24,215.01c9.96-2.06,11.17,13.14,1.92,13.56-7.93.36-9.06-12.08-1.92-13.56Z"/><path class="cls-1" d="M275.85,266.02c11.08-1.8,9.14,15.91-1.12,12.12-5.83-2.16-4.76-11.16,1.12-12.12Z"/></svg>